<svg width="468" height="104" viewBox="0 0 468 104" fill="none" xmlns="http://www.w3.org/2000/svg">
<g id="LOGO">
<path id="IS MY BOOK" d="M58.464 103V54.744H48.864V103H58.464ZM86.6085 103.896C95.5685 103.896 102.353 98.2 102.353 89.496C102.353 81.624 98.5765 77.528 90.0005 73.944C83.4725 71.128 81.4245 69.528 81.4245 66.904C81.4245 64.28 83.7925 62.168 87.1845 62.168C90.7685 62.168 93.2645 63.896 95.2485 66.84L101.393 61.336C98.3205 56.792 93.5205 53.848 86.8005 53.848C78.0325 53.848 71.6965 59.608 71.6965 67.224C71.6965 74.584 76.3685 77.912 84.2405 81.304C90.7685 84.12 92.5605 86.104 92.5605 89.624C92.5605 93.144 90.1925 95.576 86.1605 95.576C82.0005 95.576 78.4805 93.336 76.0485 88.6L69.4565 93.528C72.2085 99.608 78.1605 103.896 86.6085 103.896ZM161.43 103L173.462 74.648L177.686 103H187.414L179.094 54.744H173.142L159.702 86.488L146.71 54.744H140.694L131.606 103H141.206L145.878 74.584L157.462 103H161.43ZM216.512 103V82.136L232.513 54.744H221.504L211.776 72.856L201.984 54.744H190.912L206.912 82.136V103H216.512ZM274.524 103C284.252 103 292.188 99.032 292.188 89.304C292.188 83.672 288.54 79.32 282.652 77.464V77.4C285.916 75.736 288.22 72.024 288.22 67.672C288.22 58.712 281.372 54.744 270.876 54.744H259.932V103H274.524ZM269.34 62.616H271.452C276.7 62.616 279.004 64.344 279.004 68.44C279.004 72.664 276.508 74.968 271.388 74.968H269.34V62.616ZM269.34 82.008H273.244C279.9 82.008 282.588 84.632 282.588 88.6C282.588 92.568 279.58 95.064 273.756 95.064H269.34V82.008ZM327.965 103.896C342.045 103.896 353.757 93.144 353.757 78.936C353.757 64.728 342.109 53.848 328.285 53.848C314.269 53.848 302.621 64.856 302.621 78.744C302.621 93.464 314.397 103.896 327.965 103.896ZM328.029 95C319.773 95 312.349 88.28 312.349 78.808C312.349 69.848 319.453 62.744 328.157 62.744C337.053 62.744 343.965 69.72 343.965 78.872C343.965 88.024 336.989 95 328.029 95ZM389.82 103.896C403.9 103.896 415.612 93.144 415.612 78.936C415.612 64.728 403.964 53.848 390.14 53.848C376.124 53.848 364.476 64.856 364.476 78.744C364.476 93.464 376.252 103.896 389.82 103.896ZM389.884 95C381.628 95 374.204 88.28 374.204 78.808C374.204 69.848 381.308 62.744 390.012 62.744C398.908 62.744 405.82 69.72 405.82 78.872C405.82 88.024 398.844 95 389.884 95ZM467.035 103L446.427 76.824L466.523 54.744H454.811L437.595 74.392L437.723 54.744H428.059V103H437.723L437.595 82.008L438.875 81.368L454.939 103H467.035Z" fill="#EDE7E3"/>
<path id="WHERE" d="M27.144 55L38.88 21.304L50.328 55H56.376L78.192 0.711999H66.6L53.352 35.92L41.4 0.711999H36.576L24.192 35.92L11.664 0.711999H0.144L21.168 55H27.144ZM99.6401 55V31.168H120.376V55H131.104V0.711999H120.376V21.232H99.6401V0.711999H88.8401V55H99.6401ZM178.857 55V45.64H157.977V30.448H177.921V21.232H157.977V10.072H178.713V0.711999H147.177V55H178.857ZM217.091 32.752C224.651 29.584 228.395 24.256 228.395 17.344C228.395 5.608 219.539 0.711999 207.155 0.711999H194.123V55H204.923V33.904H206.507L220.115 55H233.075L217.091 32.752ZM207.587 10.072C214.211 10.072 217.739 12.376 217.739 17.56C217.739 22.96 213.851 25.408 207.299 25.408H204.923V10.072H207.587ZM275.14 55V45.64H254.26V30.448H274.204V21.232H254.26V10.072H274.996V0.711999H243.46V55H275.14Z" fill="#FFA62B"/>
</g>
</svg>
