<svg xmlns="http://www.w3.org/2000/svg" xmlns:xlink="http://www.w3.org/1999/xlink" width="1083.586" height="2109.98" viewBox="0 0 1083.586 2109.98">
  <defs>
    <clipPath id="clip-path">
      <path id="Tracé_118" data-name="Tracé 118" d="M5250.455,1265.081c-11.008,17.74-26.013,54.692-41.229,97.043-13.252,36.952-26.714,78.11-37.723,114.221-5.75,18.932-10.8,36.461-14.865,51.256-3.436,12.551-6.1,23.209-7.853,31.132-12.27,56.094-373.375,119.2-394.41,91.152s-47.329-257.681,85.894-494.327,410.186-282.222,410.186-282.222c12.271,35.059-19.282,42.07-10.517,98.164s77.129,82.388,77.129,82.388C5320.573,1116.994,5280.255,1216.911,5250.455,1265.081Z" fill="none"/>
    </clipPath>
    <clipPath id="clip-path-2">
      <path id="Tracé_128" data-name="Tracé 128" d="M4979.721,1217.579c10.892,43.194,36.6,89.612,60.382,126.419,57.694,89.288,148.986,202.892,263.739,217.8,170.991,22.211,363.452-344.393,363.452-344.393L5650.7,1204.13l-41.048-32.833s-261.96,125.685-305.326,190.169q-34.193-74.124-70.282-147.375c-33.771-68.3-89.921-189.595-188.075-144.554-24.81,11.384-43.846,31.685-55.8,55.72a138.47,138.47,0,0,0-14.428,59.591A127.009,127.009,0,0,0,4979.721,1217.579Z" fill="none"/>
    </clipPath>
    <clipPath id="clip-path-3">
      <path id="Tracé_139" data-name="Tracé 139" d="M4773.579,1656.033s-5.181,37.676,19.361,48.193,285.728-3.506,373.374-92.9c0,0,23.194-18.682-21.709-44.4S4738.442,1616.6,4773.579,1656.033Z" fill="none"/>
    </clipPath>
    <clipPath id="clip-path-4">
      <rect id="Rectangle_13" data-name="Rectangle 13" width="74.246" height="677.801" transform="translate(5050.153 1905.814)" fill="none"/>
    </clipPath>
  </defs>
  <g id="Groupe_55" data-name="Groupe 55" transform="translate(-4737.139 -587.811)">
    <g id="Groupe_19" data-name="Groupe 19">
      <path id="Tracé_54" data-name="Tracé 54" d="M5561.846,2406.241l-4.627,105.877-.912,20.4-1.542,35.2-89.47,4.417V2405.47l56.935.421Z" fill="#9ac1b6"/>
      <g id="Groupe_10" data-name="Groupe 10">
        <path id="Tracé_55" data-name="Tracé 55" d="M5465.348,2457.284l24.05-9.185,34.778,17.389,35.9-17.109-.7,15.776-35.339,16.9-35.339-17.67-23.349,8.905Z" fill="#f94a38"/>
      </g>
      <path id="Tracé_56" data-name="Tracé 56" d="M5816.512,2639.872a36.529,36.529,0,0,1-4.417,6.661c-.21.281-.421.491-.631.772a49.039,49.039,0,0,1-17.389,13.111c-39.125,18.862-228.653-18.651-237.488-15.285-8.694,3.225-94.8-8.2-106.3-12.832-7.573-3.015-7.853-13.322-7.223-19.913.071-.631.141-1.262.211-1.823a39.682,39.682,0,0,1,.771-4.137c-.21-.561-.421-1.192-.631-1.823-.07-.35-.21-.7-.28-1.122-6.03-23.209.631-78.391,3.856-90.451,16.337-60.792,110.716,3.365,110.716,3.365s0-1.4.07-3.716c.42-13.6,4.627-57.706,40.317-17.74,4.768,5.259,18.09,12.972,35.83,21.667,4.417,2.173,9.045,4.347,13.883,6.591,6.661,3.085,13.814,6.24,21.1,9.466,4.7,2.033,9.536,4.066,14.3,6.1,9.046,3.857,18.3,7.643,27.416,11.219,4.839,2.033,9.607,3.926,14.374,5.749,21.246,8.415,40.949,15.777,55.183,20.685,12.972,4.558,22.788,11.219,29.449,18.861C5821.7,2608.95,5823.805,2625.849,5816.512,2639.872Z" fill="#a54a0c"/>
      <g id="Groupe_12" data-name="Groupe 12">
        <g id="Groupe_11" data-name="Groupe 11">
          <path id="Tracé_57" data-name="Tracé 57" d="M5816.5,2639.87a36.627,36.627,0,0,1-4.418,6.661c-.21.281-.42.491-.631.771-45.857-3.716-126-10.658-150.191-15-36.111-6.451-90.241-13.252-123.687-10.868-22.578,1.613-65.49-4.347-94.518-9.045.07-.631.14-1.262.21-1.823a39.758,39.758,0,0,1,.771-4.137c-.21-.561-.42-1.192-.631-1.823,28.818,4.628,71.8,10.658,93.537,9.115,34.287-2.384,89.189,4.417,125.72,10.938C5686.989,2629.072,5771.691,2636.294,5816.5,2639.87Z" fill="#f26b11"/>
        </g>
      </g>
      <g id="Groupe_14" data-name="Groupe 14">
        <g id="Groupe_13" data-name="Groupe 13">
          <path id="Tracé_58" data-name="Tracé 58" d="M5703.7,2586.5a9.945,9.945,0,0,0,13.836-2.811,95.585,95.585,0,0,0,15.68-47.7,9.715,9.715,0,0,0-6.2-9.616l-.376-.148a9.814,9.814,0,0,0-13.334,8.7,76.307,76.307,0,0,1-12.417,37.749A10.07,10.07,0,0,0,5703.7,2586.5Z" fill="#f26b11"/>
        </g>
      </g>
      <g id="Groupe_16" data-name="Groupe 16">
        <g id="Groupe_15" data-name="Groupe 15">
          <path id="Tracé_59" data-name="Tracé 59" d="M5658.6,2575.224a10.2,10.2,0,0,0,8.152,2.981,9.76,9.76,0,0,0,5.954-2.72c15.055-14.336,19.1-38.048,19.569-56.949a9.615,9.615,0,0,0-5.831-9.1l-.642-.273a9.625,9.625,0,0,0-13.356,8.758c-.388,15.751-3.525,33.78-13.486,43.193A10.049,10.049,0,0,0,5658.6,2575.224Z" fill="#f26b11"/>
        </g>
      </g>
      <g id="Groupe_18" data-name="Groupe 18">
        <g id="Groupe_17" data-name="Groupe 17">
          <path id="Tracé_60" data-name="Tracé 60" d="M5623.284,2558.348a9.923,9.923,0,0,0,7.828,2.709,10.267,10.267,0,0,0,6.333-2.953c12.142-12.65,16.582-33.106,18.009-50.4a9.958,9.958,0,0,0-5.688-9.814l-.2-.095a9.762,9.762,0,0,0-13.913,7.989c-1.177,14.425-4.548,30.109-12.6,38.5A9.943,9.943,0,0,0,5623.284,2558.348Z" fill="#f26b11"/>
        </g>
      </g>
      <path id="Tracé_61" data-name="Tracé 61" d="M5816.512,2639.872a36.529,36.529,0,0,1-4.417,6.661c-.21.281-.421.491-.631.772a49.039,49.039,0,0,1-17.389,13.111c-39.125,18.862-228.653-18.651-237.488-15.285-8.694,3.225-94.8-8.2-106.3-12.832-7.573-3.015-7.853-13.322-7.223-19.913.071-.631.141-1.262.211-1.823a39.682,39.682,0,0,1,.771-4.137c-.21-.561-.421-1.192-.631-1.823-.07-.35-.21-.7-.28-1.122-6.03-23.209.631-78.391,3.856-90.451,16.337-60.792,110.716,3.365,110.716,3.365s0-1.4.07-3.716a99.542,99.542,0,0,0,22.437,12.832C5620.956,2541.427,5823.805,2625.849,5816.512,2639.872Z" opacity="0.42" style="mix-blend-mode: overlay;isolation: isolate"/>
      <path id="Tracé_62" data-name="Tracé 62" d="M5556.307,2532.523c-15.356,9.886-53.079,15.916-91.012,19.492V2405.47l56.935.421c1.192,33.095,7.923,80.564,34.989,106.227l.561.561C5566.334,2520.6,5564.651,2527.194,5556.307,2532.523Z" opacity="0.42" style="mix-blend-mode: overlay;isolation: isolate"/>
    </g>
    <g id="Groupe_29" data-name="Groupe 29">
      <path id="Tracé_63" data-name="Tracé 63" d="M5493.322,2438.287l-7.092,161.5-89.469,4.427V2437.537Z" fill="#9ac1b6"/>
      <path id="Tracé_64" data-name="Tracé 64" d="M5747.938,2671.916a36.672,36.672,0,0,1-4.417,6.661c-.211.28-.421.491-.632.771a49.04,49.04,0,0,1-17.389,13.112c-39.125,18.862-228.652-18.651-237.487-15.285-8.7,3.225-94.8-8.2-106.3-12.832-7.573-3.015-7.853-13.322-7.222-19.913.07-.631.14-1.263.21-1.823a39.744,39.744,0,0,1,.772-4.137c-.211-.561-.421-1.192-.632-1.823-.07-.351-.21-.7-.28-1.122-6.03-23.209.615-78.407,3.856-90.452,16.361-60.791,110.716,3.366,110.716,3.366s-1.333-68.154,40.387-21.456c4.768,5.259,18.091,12.972,35.83,21.666,4.418,2.174,9.045,4.348,13.884,6.592,6.661,3.085,13.813,6.24,21.1,9.465,4.7,2.034,9.536,4.067,14.3,6.1,9.045,3.857,18.3,7.643,27.416,11.219,4.838,2.034,9.6,3.927,14.374,5.75,21.245,8.414,40.948,15.776,55.182,20.684C5747.727,2621.151,5759.367,2649.969,5747.938,2671.916Z" fill="#a54a0c"/>
      <g id="Groupe_21" data-name="Groupe 21">
        <g id="Groupe_20" data-name="Groupe 20">
          <path id="Tracé_65" data-name="Tracé 65" d="M5747.938,2671.916a36.672,36.672,0,0,1-4.417,6.661c-.211.28-.421.491-.632.771-45.856-3.716-126-10.658-150.191-15-36.111-6.451-90.241-13.252-123.687-10.868-22.578,1.613-65.49-4.347-94.518-9.045.07-.631.14-1.263.21-1.823a39.744,39.744,0,0,1,.772-4.137c-.211-.561-.421-1.192-.632-1.823,28.819,4.628,71.8,10.658,93.537,9.115,34.287-2.384,89.189,4.417,125.72,10.938C5618.431,2661.118,5703.133,2668.34,5747.938,2671.916Z" fill="#f26b11"/>
        </g>
      </g>
      <g id="Groupe_23" data-name="Groupe 23">
        <g id="Groupe_22" data-name="Groupe 22">
          <path id="Tracé_66" data-name="Tracé 66" d="M5635.144,2618.543a9.946,9.946,0,0,0,13.837-2.811,95.6,95.6,0,0,0,15.68-47.7,9.718,9.718,0,0,0-6.2-9.616l-.376-.148a9.813,9.813,0,0,0-13.334,8.7,76.329,76.329,0,0,1-12.417,37.749A10.069,10.069,0,0,0,5635.144,2618.543Z" fill="#f26b11"/>
        </g>
      </g>
      <g id="Groupe_25" data-name="Groupe 25">
        <g id="Groupe_24" data-name="Groupe 24">
          <path id="Tracé_67" data-name="Tracé 67" d="M5590.045,2607.27a10.2,10.2,0,0,0,8.152,2.981,9.757,9.757,0,0,0,5.954-2.72c15.055-14.336,19.1-38.048,19.569-56.949a9.616,9.616,0,0,0-5.831-9.1l-.642-.273a9.625,9.625,0,0,0-13.356,8.758c-.388,15.751-3.525,33.78-13.486,43.193A10.051,10.051,0,0,0,5590.045,2607.27Z" fill="#f26b11"/>
        </g>
      </g>
      <g id="Groupe_27" data-name="Groupe 27">
        <g id="Groupe_26" data-name="Groupe 26">
          <path id="Tracé_68" data-name="Tracé 68" d="M5554.726,2590.394a9.926,9.926,0,0,0,7.828,2.709,10.269,10.269,0,0,0,6.333-2.953c12.142-12.65,16.582-33.106,18.009-50.4a9.958,9.958,0,0,0-5.688-9.814l-.2-.095a9.762,9.762,0,0,0-13.913,7.989c-1.176,14.425-4.548,30.109-12.6,38.5A9.943,9.943,0,0,0,5554.726,2590.394Z" fill="#f26b11"/>
        </g>
      </g>
      <g id="Groupe_28" data-name="Groupe 28">
        <path id="Tracé_69" data-name="Tracé 69" d="M5396.79,2489.33l24.05-9.185,34.778,17.389,35.9-17.109-.7,15.777-35.339,16.9-35.339-17.67-23.349,8.905Z" fill="#f94a38"/>
      </g>
    </g>
    <path id="Tracé_70" data-name="Tracé 70" d="M5172.3,1587.113s370.892-82.721,479.574-14.357c87.175,54.836,86.547,188.218,76.829,277.888-11.406,105.246-149.172,593.32-162.723,593.32h-71.87s126.211-653.844,85.894-718.7-436.481-26.294-436.481-26.294S5102.915,1610.235,5172.3,1587.113Z" fill="#f72f26"/>
    <path id="Tracé_71" data-name="Tracé 71" d="M5659.871,1785.422c-24.541,169.614-97.394,465.3-133.153,606.025-5.47,21.455-10.027,39.265-13.463,52.517-4.347,16.828-6.871,26.294-6.871,26.294H5390.69s-5.259-170.034,7.012-373.374-21.036-264.694-36.812-261.188-359.351,45.577-471.539,14.024c-70.328-19.773-90.381-71.941-95.5-108.121-3.085-21.526-.911-37.373-.911-37.373s130.348-51.466,344.766-88.207c9.4-1.613,18.932-3.156,28.608-4.7,231.388-36.812,475.045-42.07,499.587,59.6C5670.6,1690.343,5667.654,1731.5,5659.871,1785.422Z" fill="#f94a38"/>
    <path id="Tracé_72" data-name="Tracé 72" d="M4773.579,1656.033s-5.181,37.676,19.361,48.193,285.728-3.506,373.374-92.9c0,0,23.194-18.682-21.709-44.4S4738.442,1616.6,4773.579,1656.033Z" fill="#749389"/>
    <path id="Tracé_73" data-name="Tracé 73" d="M4978.919,1167.626c10.892,43.194,41.889,80.7,65.672,117.51,57.694,89.287,143.7,211.8,258.449,226.708,170.991,22.211,363.452-344.393,363.452-344.393l-57.643-46.107s-261.96,125.685-305.326,190.169q-34.192-74.124-70.282-147.375c-33.771-68.3-89.921-189.595-188.075-144.554-43.849,20.121-69.664,68.095-70.231,115.311A126.988,126.988,0,0,0,4978.919,1167.626Z" fill="#749389"/>
    <path id="Tracé_74" data-name="Tracé 74" d="M5406.466,910.147s-52.588,33.306-66.611,63.106c-8.064,17.179-14.374,41.229-18.371,58.618-2.875,12.9-4.417,22.017-4.417,22.017l-43.824,22.788L5185.6,922.418l64.858-49.082s29.379-9.536,59.32-22.157c27.976-11.78,56.444-26.294,61.633-38C5382.136,788.774,5406.466,910.147,5406.466,910.147Z" fill="#ff9d6c"/>
    <path id="Tracé_75" data-name="Tracé 75" d="M5406.466,910.147s-52.588,33.306-66.611,63.106c-8.064,17.179-14.374,41.229-18.371,58.618-27.065-62.615-18.09-143.53-11.709-180.692,27.976-11.78,56.444-26.294,61.633-38C5382.136,788.774,5406.466,910.147,5406.466,910.147Z" opacity="0.42" style="mix-blend-mode: overlay;isolation: isolate"/>
    <path id="Tracé_76" data-name="Tracé 76" d="M5595.783,823.693c-.982,11.429-10.307,28.047-23.138,44.8-17.179,22.367-40.6,44.945-58.689,55.673-31.552,18.721-80.635,43.262-116.815-1.192-36.251-44.384-26.855-102.091-25.733-109.8,2.384-16.408,14.234-31.553,30.991-44.875,40.6-32.464,110.015-54.341,143.11-56.795C5592.277,708,5598.1,796.767,5595.783,823.693Z" fill="#ff9d6c"/>
    <path id="Tracé_77" data-name="Tracé 77" d="M5250.455,1265.081c-11.008,17.74-26.013,54.692-41.229,97.043-13.252,36.952-26.714,78.11-37.723,114.221-5.75,18.932-10.8,36.461-14.865,51.256-3.436,12.551-6.1,23.209-7.853,31.132-12.27,56.094-373.375,119.2-394.41,91.152s-47.329-257.681,85.894-494.327,410.186-282.222,410.186-282.222c12.271,35.059-19.282,42.07-10.517,98.164s77.129,82.388,77.129,82.388C5320.573,1116.994,5280.255,1216.911,5250.455,1265.081Z" fill="#9ac1b6"/>
    <rect id="Rectangle_10" data-name="Rectangle 10" width="74.254" height="677.824" transform="translate(5050.13 1905.814)" fill="#8c3e0a"/>
    <path id="Tracé_78" data-name="Tracé 78" d="M5278.923,2656.069H4895.592a120.491,120.491,0,0,1,120.461-120.461h142.408a120.416,120.416,0,0,1,120.462,120.461Z" fill="#8c3e0a"/>
    <g id="Groupe_30" data-name="Groupe 30">
      <path id="Tracé_79" data-name="Tracé 79" d="M5802.568,988.324,5797.9,895.7a3,3,0,0,0-5.135-1.953L5577.22,1113a3,3,0,0,0,.306,4.477l63.874,49.339a3,3,0,0,0,4.077-.382l156.337-175.971A3,3,0,0,0,5802.568,988.324Z" fill="#a54a0c"/>
      <path id="Tracé_80" data-name="Tracé 80" d="M5802.629,989.55,5794.64,917.7c-1.172-7.83-2.24-11.158-4.224-11.415l-11.168-2.065-1.758,13.615-45.647,50.684Z" fill="#b3b3b3"/>
      <path id="Tracé_81" data-name="Tracé 81" d="M5784.781,983.288s-4.027-80.661-5.534-79.071l-57.331,60.96Z" fill="#e6e6e6"/>
      <path id="Tracé_82" data-name="Tracé 82" d="M5784.781,983.288l-95.763-60.836a4.869,4.869,0,0,0-6.827,1.676l-8.789,15.227Z" fill="#e6e6e6"/>
      <path id="Tracé_83" data-name="Tracé 83" d="M5784.75,983.28l-3.086,3.436-.14.14c-.07,0-.14.07-.21.14L5625.233,1159.2l-115.484-31.9a15.484,15.484,0,0,1-7.5-24.962l132.872-152.926a15.5,15.5,0,0,1,15.847-4.7Z" fill="#a54a0c"/>
      <path id="Tracé_84" data-name="Tracé 84" d="M5784.781,983.288l-116.049-57.647a7.815,7.815,0,0,0-9.8,2.41l-11.389,15.7Z" fill="#b3b3b3"/>
      <path id="Tracé_85" data-name="Tracé 85" d="M5784.781,983.288s6.987-8.371,17.848,6.262l-6.157,6.93-14.78-9.786Z" fill="#999"/>
      <path id="Tracé_86" data-name="Tracé 86" d="M5802.629,989.55s-9.9,3.06-17.848-6.262l-159.54,175.92s4.8,13.7,18.376,9.324Z" fill="#8c3e0a"/>
      <path id="Tracé_87" data-name="Tracé 87" d="M5781.314,987,5625.233,1159.2l-115.484-31.9a15.172,15.172,0,0,1-11.148-13.322c38.494,8.483,120.251,23.419,140.094,2.173C5664.218,1088.947,5774.442,992.956,5781.314,987Z" opacity="0.42" style="mix-blend-mode: overlay;isolation: isolate"/>
    </g>
    <path id="Tracé_88" data-name="Tracé 88" d="M5600.508,1191.867s76.632-61.4,79.266-84.346,10.65-56.373,19.436-41.473,2.172,33.96,2.172,33.96l24.44-27.142s32.251-48.555,32.008-5.527c-.11,19.637,6.576,73.789-58.047,104.356-32.025,15.148-58.455,51.78-58.455,51.78Z" fill="#ff9d6c"/>
    <path id="Tracé_89" data-name="Tracé 89" d="M5595.783,823.693c-.982,11.429-10.307,28.047-23.138,44.8-6.521-29.59-27.556-110.786-57.5-85.4-45.576,38.564-91.994,22.718-91.994,22.718L5402.4,768.3c40.6-32.464,110.015-54.341,143.11-56.795C5592.277,708,5598.1,796.767,5595.783,823.693Z" opacity="0.42" style="mix-blend-mode: overlay;isolation: isolate"/>
    <path id="Tracé_90" data-name="Tracé 90" d="M5674.1,793.823s10.518,40.387-19.913,60.09c-30.361,19.7-72.011,1.122-72.011,1.122,9.186-33.166-11.779-63.246-23.208-88.628s-71.029-14.865-79.724,7.012c-8.835,21.876-33.586,23.138-33.586,23.138-32.745-11.92-33.025,14.585-37.232,34.217-4.137,19.7-62.405,12.762-82.6,0-30.781-19.422-26.855-64.367-17.529-85.4s-45.576-19.844-12.832-86.455c28.679-58.478,96.272-41.3,112.258-36.251l3.436,1.192c79.443-76.007,139.464-8.2,139.464-8.2,68.154-32.746,98.935,71.309,98.935,71.309,44.385,1.122,39.687,50.2,39.687,50.2C5705.657,761.709,5674.1,793.823,5674.1,793.823Z" fill="#f26b11"/>
    <path id="Tracé_91" data-name="Tracé 91" d="M5582.18,855.035c9.186-33.166-11.779-63.246-23.208-88.628s-71.029-14.865-79.724,7.012c-8.835,21.876-33.586,23.138-33.586,23.138-32.745-11.92-33.025,14.585-37.232,34.217-4.137,19.7-62.405,12.762-82.6,0-30.781-19.422-26.855-64.367-17.529-85.4s-45.576-19.844-12.832-86.455c28.679-58.478,96.272-41.3,112.258-36.251l3.436,1.192c-55.813,9.045-60.791,62.755-50.274,90.1s50.834,3.366,71.432,16.074c9.542,5.888,20.587,11.146,31.929,12.812a29.038,29.038,0,0,0,21.381-4.664c9.219-6.355,14.814-12.636,26.579-13.571,9.99-.795,20.226,1.265,29.725,4.23,19.171,5.985,36.954,17.945,48.027,34.9C5615.627,803.219,5582.18,855.035,5582.18,855.035Z" opacity="0.2" style="mix-blend-mode: overlay;isolation: isolate"/>
    <path id="Tracé_92" data-name="Tracé 92" d="M5445.662,796.557l-12.481,11.429-24.751,22.788c-8.975-1.06-13.312-8.932-19.282-32.464v-.21c-3.156-20.685,14.3-44.595,36.11-40.949C5447.134,760.8,5445.662,796.557,5445.662,796.557Z" fill="#ff9d6c"/>
    <path id="Tracé_93" data-name="Tracé 93" d="M5445.662,796.557l-12.481,11.429s3.506-16.617-5.679-25.382c-6.732-6.451-29.1,2.524-38.354,15.5-3.156-20.685,14.3-44.595,36.11-40.949C5447.134,760.8,5445.662,796.557,5445.662,796.557Z" opacity="0.42" style="mix-blend-mode: overlay;isolation: isolate"/>
    <g id="Groupe_31" data-name="Groupe 31" opacity="0.2" style="mix-blend-mode: overlay;isolation: isolate">
      <path id="Tracé_94" data-name="Tracé 94" d="M5599.289,848.795c9.41-15.626,16.153-33.132,17.08-51.168a71.767,71.767,0,0,0-3.2-26.479,70.758,70.758,0,0,0-12.916-23.1c-11.44-13.657-27.245-23.133-43.855-29.947a251.078,251.078,0,0,0-25.661-8.808c-8.769-2.609-17.251-4.6-26.162-4.632-8.834-.3-17.648,1.088-26.536,2.955-8.841,1.773-18.111,4.292-28.076,3.113-10.059-1.37-18.527-7.65-24.616-14.847a57.569,57.569,0,0,1-12.432-25.516c-1.872-9.3-1.3-19.586,3.548-28.084,4.638-8.512,12.448-14.795,20.981-18.6,17.275-7.673,37.312-6.479,54.038.74-17.18-5.946-36.755-6.249-52.762,1.941-7.951,3.88-14.984,9.968-18.873,17.708-4.085,7.67-4.336,16.867-2.38,25.307a56.378,56.378,0,0,0,11.863,23.107c5.718,6.576,13.051,11.744,21.351,12.782,8.381.95,17.195-1.371,26.167-3.312,8.975-1.974,18.363-3.592,27.865-3.339,9.467.094,18.963,2.443,27.668,5.143a256.592,256.592,0,0,1,26.143,9.271c16.953,7.245,33.693,17.064,45.332,32.1a75.007,75.007,0,0,1,12.958,24.912,74.206,74.206,0,0,1,2.5,27.806C5617.338,816.408,5609.847,833.877,5599.289,848.795Z"/>
    </g>
    <g id="Groupe_32" data-name="Groupe 32" opacity="0.2" style="mix-blend-mode: overlay;isolation: isolate">
      <path id="Tracé_95" data-name="Tracé 95" d="M5620.766,842.83c9.9-12.4,17.871-26.41,22.5-41.42,4.757-14.876,6.194-30.99,2.162-45.936-7.265-30.4-34.061-52.905-62.927-62.584-14.8-4.842-30.346-5.772-46.052-4.268-7.869.611-15.907,1.479-24.11,1.207a69.313,69.313,0,0,1-24.051-5c-7.6-3.13-14.93-7.779-19.882-14.675-4.958-6.77-7.213-15.768-5.03-23.985a28.026,28.026,0,0,1,5.894-10.913c2.629-3.126,6.128-5.911,10.266-6.776,8.314-1.715,16.031,1.413,23.78,2.828l-11.806-1.66c-3.9-.452-7.918-.754-11.557.382-3.687,1-6.618,3.627-8.9,6.656a24.7,24.7,0,0,0,.416,31.178c4.6,5.961,11.362,9.966,18.476,12.611a71.977,71.977,0,0,0,22.548,4.118c7.715.17,15.528-.749,23.494-1.466,15.9-1.731,32.732-.984,48.309,3.983a113.621,113.621,0,0,1,41.555,25.287c11.791,11.229,20.869,25.9,24.092,42.019,3.705,16.028,1.591,32.866-3.885,47.947a115.247,115.247,0,0,1-10.7,21.536A113.236,113.236,0,0,1,5620.766,842.83Z"/>
    </g>
    <path id="Tracé_96" data-name="Tracé 96" d="M5164,1501.587c-75.657-52.728-208.95-161.62-215.05-278.015-3.927-75.236,63.1-147.246,120.952-147.246,38.565,0,90.452,204.111,120.742,339.928Z" opacity="0.42" style="mix-blend-mode: overlay;isolation: isolate"/>
    <path id="Tracé_97" data-name="Tracé 97" d="M5250.455,1265.081c-11.008,17.74-26.013,54.692-41.229,97.043l-86.735-285.448s120.953,82.037,131.47,122.7c0,0,40.318-64.858,63.106-145.493C5320.573,1116.994,5280.255,1216.911,5250.455,1265.081Z" opacity="0.42" style="mix-blend-mode: overlay;isolation: isolate"/>
    <path id="Tracé_98" data-name="Tracé 98" d="M4979.721,1217.579c10.892,43.194,36.6,89.612,60.382,126.419,57.694,89.288,148.986,202.892,263.739,217.8,170.991,22.211,363.452-344.393,363.452-344.393L5650.7,1204.13l-41.048-32.833s-261.96,125.685-305.326,190.169q-34.193-74.124-70.282-147.375c-33.771-68.3-89.921-189.595-188.075-144.554-24.81,11.384-43.846,31.685-55.8,55.72a138.47,138.47,0,0,0-14.428,59.591A127.009,127.009,0,0,0,4979.721,1217.579Z" fill="#9ac1b6"/>
    <g id="Groupe_35" data-name="Groupe 35" opacity="0.53">
      <g id="Groupe_34" data-name="Groupe 34" clip-path="url(#clip-path)">
        <g id="Groupe_33" data-name="Groupe 33">
          <path id="Tracé_99" data-name="Tracé 99" d="M5134.57,923.954h0a5.384,5.384,0,0,1-5.384-5.384V898.229a5.383,5.383,0,0,1,5.384-5.384h0a5.384,5.384,0,0,1,5.385,5.384V918.57A5.385,5.385,0,0,1,5134.57,923.954Z" fill="#749389"/>
          <path id="Tracé_100" data-name="Tracé 100" d="M5194.774,985.008h0a5.384,5.384,0,0,1,4.477-6.159l20.092-3.176a5.385,5.385,0,0,1,6.159,4.478h0a5.385,5.385,0,0,1-4.478,6.159l-20.091,3.176A5.385,5.385,0,0,1,5194.774,985.008Z" fill="#749389"/>
          <path id="Tracé_101" data-name="Tracé 101" d="M5032.315,998.909h0a5.384,5.384,0,0,1,4.478-6.159l20.091-3.176a5.384,5.384,0,0,1,6.159,4.478h0a5.384,5.384,0,0,1-4.478,6.159l-20.091,3.176A5.385,5.385,0,0,1,5032.315,998.909Z" fill="#749389"/>
          <path id="Tracé_102" data-name="Tracé 102" d="M5003.3,1089.31h0a5.384,5.384,0,0,1,4.478-6.159l20.091-3.176a5.385,5.385,0,0,1,6.159,4.478h0a5.384,5.384,0,0,1-4.477,6.159l-20.092,3.176A5.385,5.385,0,0,1,5003.3,1089.31Z" fill="#749389"/>
          <rect id="Rectangle_11" data-name="Rectangle 11" width="10.769" height="31.11" rx="5.384" transform="translate(5174.821 1081.459)" fill="#749389"/>
          <path id="Tracé_103" data-name="Tracé 103" d="M5240.41,1144.585h0a5.383,5.383,0,0,1,4.477-6.159l20.092-3.176a5.386,5.386,0,0,1,6.159,4.478h0a5.385,5.385,0,0,1-4.478,6.159l-20.091,3.176A5.383,5.383,0,0,1,5240.41,1144.585Z" fill="#749389"/>
          <path id="Tracé_104" data-name="Tracé 104" d="M4853.047,1178.456h0a5.384,5.384,0,0,1,4.477-6.159l20.092-3.176a5.384,5.384,0,0,1,6.159,4.478h0a5.386,5.386,0,0,1-4.478,6.159l-20.091,3.176A5.385,5.385,0,0,1,4853.047,1178.456Z" fill="#749389"/>
          <path id="Tracé_105" data-name="Tracé 105" d="M4933.961,1267.271h0a5.384,5.384,0,0,1,4.478-6.159l20.091-3.176a5.385,5.385,0,0,1,6.159,4.478h0a5.384,5.384,0,0,1-4.477,6.159l-20.092,3.176A5.385,5.385,0,0,1,4933.961,1267.271Z" fill="#749389"/>
          <path id="Tracé_106" data-name="Tracé 106" d="M4776.052,1281.427h0a5.385,5.385,0,0,1,4.478-6.159l20.091-3.176a5.384,5.384,0,0,1,6.159,4.478h0a5.383,5.383,0,0,1-4.477,6.159l-20.092,3.176A5.386,5.386,0,0,1,4776.052,1281.427Z" fill="#749389"/>
          <path id="Tracé_107" data-name="Tracé 107" d="M4868.411,1370.623h0a5.385,5.385,0,0,1-5.385-5.384V1344.9a5.385,5.385,0,0,1,5.385-5.385h0a5.384,5.384,0,0,1,5.384,5.385v20.341A5.384,5.384,0,0,1,4868.411,1370.623Z" fill="#749389"/>
          <path id="Tracé_108" data-name="Tracé 108" d="M4967.522,1402.639h0a5.384,5.384,0,0,1,4.478-6.159l20.091-3.176a5.385,5.385,0,0,1,6.159,4.478h0a5.384,5.384,0,0,1-4.478,6.159l-20.091,3.176A5.385,5.385,0,0,1,4967.522,1402.639Z" fill="#749389"/>
          <path id="Tracé_109" data-name="Tracé 109" d="M4870.138,1589.542h0a5.385,5.385,0,0,1,4.478-6.159l20.091-3.176a5.385,5.385,0,0,1,6.159,4.478h0a5.384,5.384,0,0,1-4.477,6.159l-20.092,3.176A5.385,5.385,0,0,1,4870.138,1589.542Z" fill="#749389"/>
          <path id="Tracé_110" data-name="Tracé 110" d="M5084.471,1479.38h0a5.384,5.384,0,0,1-5.384-5.384v-20.341a5.384,5.384,0,0,1,5.384-5.384h0a5.383,5.383,0,0,1,5.384,5.384V1474A5.383,5.383,0,0,1,5084.471,1479.38Z" fill="#749389"/>
          <path id="Tracé_111" data-name="Tracé 111" d="M5144.675,1511.4h0a5.383,5.383,0,0,1,4.477-6.158l20.092-3.176a5.383,5.383,0,0,1,6.159,4.477h0a5.385,5.385,0,0,1-4.478,6.159l-20.091,3.176A5.384,5.384,0,0,1,5144.675,1511.4Z" fill="#749389"/>
          <path id="Tracé_112" data-name="Tracé 112" d="M4983.41,1532.851h0a5.384,5.384,0,0,1,4.478-6.159l20.091-3.176a5.384,5.384,0,0,1,6.159,4.478h0a5.385,5.385,0,0,1-4.478,6.159l-20.091,3.175A5.383,5.383,0,0,1,4983.41,1532.851Z" fill="#749389"/>
          <path id="Tracé_113" data-name="Tracé 113" d="M5074.491,1555.069h0a5.384,5.384,0,0,1,4.478-6.158l20.091-3.176a5.383,5.383,0,0,1,6.159,4.477h0a5.384,5.384,0,0,1-4.477,6.159l-20.092,3.176A5.384,5.384,0,0,1,5074.491,1555.069Z" fill="#749389"/>
          <path id="Tracé_114" data-name="Tracé 114" d="M4890.887,1494.935h0a5.385,5.385,0,0,1-5.385-5.384V1469.21a5.384,5.384,0,0,1,5.385-5.384h0a5.384,5.384,0,0,1,5.384,5.384v20.341A5.385,5.385,0,0,1,4890.887,1494.935Z" fill="#749389"/>
          <path id="Tracé_115" data-name="Tracé 115" d="M4753.64,1633.051h0a5.384,5.384,0,0,1,4.478-6.159l20.091-3.176a5.384,5.384,0,0,1,6.159,4.477h0a5.384,5.384,0,0,1-4.477,6.159l-20.092,3.175A5.383,5.383,0,0,1,4753.64,1633.051Z" fill="#749389"/>
          <path id="Tracé_116" data-name="Tracé 116" d="M4891.954,1065.454h0a5.386,5.386,0,0,1,4.478-6.159l20.091-3.176a5.385,5.385,0,0,1,6.159,4.478h0a5.384,5.384,0,0,1-4.477,6.159l-20.092,3.176A5.385,5.385,0,0,1,4891.954,1065.454Z" fill="#749389"/>
          <path id="Tracé_117" data-name="Tracé 117" d="M4753.64,1497.364h0a5.384,5.384,0,0,1,4.478-6.159l20.091-3.176a5.384,5.384,0,0,1,6.159,4.477h0a5.384,5.384,0,0,1-4.477,6.159l-20.092,3.175A5.383,5.383,0,0,1,4753.64,1497.364Z" fill="#749389"/>
        </g>
      </g>
    </g>
    <g id="Groupe_38" data-name="Groupe 38" opacity="0.53">
      <g id="Groupe_37" data-name="Groupe 37" clip-path="url(#clip-path-2)">
        <g id="Groupe_36" data-name="Groupe 36">
          <path id="Tracé_119" data-name="Tracé 119" d="M5543.512,1273.76h0a5.384,5.384,0,0,1,4.644-6.034l20.17-2.628a5.384,5.384,0,0,1,6.035,4.644h0a5.385,5.385,0,0,1-4.644,6.035l-20.17,2.627A5.384,5.384,0,0,1,5543.512,1273.76Z" fill="#749389"/>
          <path id="Tracé_120" data-name="Tracé 120" d="M5315.42,1394.374h0a5.384,5.384,0,0,1-1.4-7.484L5325.5,1370.1a5.383,5.383,0,0,1,7.484-1.4h0a5.385,5.385,0,0,1,1.4,7.484l-11.488,16.786A5.382,5.382,0,0,1,5315.42,1394.374Z" fill="#749389"/>
          <path id="Tracé_121" data-name="Tracé 121" d="M5112.1,1218.687h0a5.384,5.384,0,0,1-7.612.217l-14.787-13.968a5.384,5.384,0,0,1-.217-7.611h0a5.385,5.385,0,0,1,7.612-.217l14.787,13.967A5.385,5.385,0,0,1,5112.1,1218.687Z" fill="#749389"/>
          <path id="Tracé_122" data-name="Tracé 122" d="M5187.153,1242.1h0a5.384,5.384,0,0,1-1.4-7.484l11.487-16.787a5.386,5.386,0,0,1,7.485-1.4h0a5.385,5.385,0,0,1,1.4,7.485l-11.487,16.786A5.386,5.386,0,0,1,5187.153,1242.1Z" fill="#749389"/>
          <path id="Tracé_123" data-name="Tracé 123" d="M5092.012,1374.066h0a5.384,5.384,0,0,1-1.4-7.484L5102.1,1349.8a5.384,5.384,0,0,1,7.485-1.4h0a5.383,5.383,0,0,1,1.4,7.484l-11.487,16.786A5.386,5.386,0,0,1,5092.012,1374.066Z" fill="#749389"/>
          <path id="Tracé_124" data-name="Tracé 124" d="M5211.1,1412.246h0a5.384,5.384,0,0,1-1.4-7.485l11.487-16.786a5.386,5.386,0,0,1,7.485-1.4h0a5.384,5.384,0,0,1,1.4,7.484l-11.487,16.787A5.386,5.386,0,0,1,5211.1,1412.246Z" fill="#749389"/>
          <path id="Tracé_125" data-name="Tracé 125" d="M5463,1414.958h0a5.384,5.384,0,0,1-5.236-5.529l.554-20.333a5.384,5.384,0,0,1,5.529-5.236h0a5.384,5.384,0,0,1,5.236,5.529l-.554,20.333A5.384,5.384,0,0,1,5463,1414.958Z" fill="#749389"/>
          <path id="Tracé_126" data-name="Tracé 126" d="M5497.467,1336.145h0a5.384,5.384,0,0,1,4.643-6.035l20.171-2.628a5.385,5.385,0,0,1,6.035,4.644h0a5.384,5.384,0,0,1-4.644,6.035l-20.171,2.627A5.385,5.385,0,0,1,5497.467,1336.145Z" fill="#749389"/>
          <path id="Tracé_127" data-name="Tracé 127" d="M5310.421,1504.051h0a5.383,5.383,0,0,1-1.4-7.484l11.487-16.787a5.385,5.385,0,0,1,7.485-1.4h0a5.383,5.383,0,0,1,1.4,7.484l-11.487,16.787A5.385,5.385,0,0,1,5310.421,1504.051Z" fill="#749389"/>
        </g>
      </g>
    </g>
    <g id="Groupe_51" data-name="Groupe 51">
      <g id="Groupe_50" data-name="Groupe 50" clip-path="url(#clip-path-3)">
        <g id="Groupe_49" data-name="Groupe 49">
          <g id="Groupe_39" data-name="Groupe 39">
            <path id="Tracé_129" data-name="Tracé 129" d="M4816.624,1726.926c-24.149-21.73-22.132-81.631-22.035-84.168l6.051.23c-.021.595-2.008,59.6,20.036,79.437Z" fill="#9ac1b6"/>
          </g>
          <g id="Groupe_40" data-name="Groupe 40">
            <path id="Tracé_130" data-name="Tracé 130" d="M4850.657,1726.926c-24.149-21.73-22.133-81.631-22.035-84.168l6.051.23c-.021.595-2.008,59.6,20.036,79.437Z" fill="#9ac1b6"/>
          </g>
          <g id="Groupe_41" data-name="Groupe 41">
            <path id="Tracé_131" data-name="Tracé 131" d="M4890.365,1718.51c-24.149-21.733-22.132-81.631-22.035-84.169l6.051.231c-.021.594-2.008,59.6,20.036,79.437Z" fill="#9ac1b6"/>
          </g>
          <g id="Groupe_42" data-name="Groupe 42">
            <path id="Tracé_132" data-name="Tracé 132" d="M4928.811,1718.51c-24.15-21.733-22.133-81.631-22.036-84.169l6.051.231c-.021.594-2.008,59.6,20.036,79.437Z" fill="#9ac1b6"/>
          </g>
          <g id="Groupe_43" data-name="Groupe 43">
            <path id="Tracé_133" data-name="Tracé 133" d="M4969.56,1714.13c-24.15-21.73-22.13-81.631-22.032-84.169l6.05.231c-.02.595-2.011,59.6,20.033,79.437Z" fill="#9ac1b6"/>
          </g>
          <g id="Groupe_44" data-name="Groupe 44">
            <path id="Tracé_134" data-name="Tracé 134" d="M5007.233,1703.144c-24.149-21.734-22.13-81.635-22.032-84.172l6.051.231c-.021.594-2.011,59.6,20.033,79.44Z" fill="#9ac1b6"/>
          </g>
          <g id="Groupe_45" data-name="Groupe 45">
            <path id="Tracé_135" data-name="Tracé 135" d="M5046.285,1692.627c-24.15-21.733-22.133-81.634-22.035-84.171l6.05.23c-.02.595-2.008,59.6,20.036,79.44Z" fill="#9ac1b6"/>
          </g>
          <g id="Groupe_46" data-name="Groupe 46">
            <path id="Tracé_136" data-name="Tracé 136" d="M5091.854,1682.368c-28.934-14.772-42.435-73.161-43-75.639l5.908-1.337c.13.58,13.43,58.1,39.844,71.582Z" fill="#9ac1b6"/>
          </g>
          <g id="Groupe_47" data-name="Groupe 47">
            <path id="Tracé_137" data-name="Tracé 137" d="M5132.55,1659.343c-30.029-12.409-48.157-69.533-48.914-71.958l5.781-1.8c.178.568,18.037,56.837,45.446,68.166Z" fill="#9ac1b6"/>
          </g>
          <g id="Groupe_48" data-name="Groupe 48">
            <path id="Tracé_138" data-name="Tracé 138" d="M5172.755,1635.9c-31.572-7.663-58.239-61.332-59.357-63.615l5.436-2.668c.263.532,26.53,53.4,55.352,60.4Z" fill="#9ac1b6"/>
          </g>
        </g>
      </g>
    </g>
    <path id="Tracé_140" data-name="Tracé 140" d="M5405.414,2437.583a211.587,211.587,0,0,1-8.624,22.158,52.89,52.89,0,0,1-6.1,10.517s-5.259-170.034,7.012-373.374-21.036-264.694-36.812-261.188-359.351,45.577-471.539,14.024-96.411-145.494-96.411-145.494,74.815,91.714,194.014,98.725,345.258-47.329,444.9,4.418C5520.618,1853.436,5449.589,2305.693,5405.414,2437.583Z" opacity="0.21" style="mix-blend-mode: overlay;isolation: isolate"/>
    <path id="Tracé_141" data-name="Tracé 141" d="M5278.923,2656.069s-82.879-79.793-183.918-79.793-199.413,79.793-199.413,79.793a120.491,120.491,0,0,1,120.461-120.461h142.408a120.416,120.416,0,0,1,120.462,120.461Z" opacity="0.1" style="mix-blend-mode: overlay;isolation: isolate"/>
    <rect id="Rectangle_12" data-name="Rectangle 12" width="154.258" height="86.478" rx="39.733" transform="translate(5010.147 2097.468)" fill="#8c3e0a"/>
    <g id="Groupe_54" data-name="Groupe 54">
      <g id="Groupe_53" data-name="Groupe 53" clip-path="url(#clip-path-4)">
        <g id="Groupe_52" data-name="Groupe 52">
          <path id="Tracé_142" data-name="Tracé 142" d="M5111.47,2468.336c-21.8,0-53.939-1.458-101.416-5.344l.5-6.039c127.384,10.43,140.66,2.762,141.7.162-.574-1.8-9.186-5.568-16.109-8.594-20.059-8.774-50.372-22.032-67.69-51.983-19.879-34.385-17.768-82.061,4.915-110.9,19.175-24.377,49.213-31.421,69.092-36.079,8.458-1.984,18.983-4.451,19.078-6.959.225-5.873-32.439-11.551-58.685-16.111-55.11-9.579-130.587-22.7-142.192-61.294-14.645-48.7,75.291-116.016,111.178-137.844,31.738-19.3,61.989-29.9,80.064-36.23,5.14-1.8,10.4-3.644,13.713-5.069-10.54-.961-45.729,1.224-154.858,17.765l-.9-5.986c162.139-24.584,163.6-18.09,164.676-13.355,1.077,4.758-4.391,6.674-20.624,12.358-17.85,6.255-47.725,16.718-78.919,35.692-48.338,29.4-120.547,90.944-108.523,130.924,10.526,35.015,83.873,47.764,137.428,57.071,43.307,7.526,64.106,11.619,63.7,22.31-.27,7.121-9.609,9.31-23.748,12.625-19.054,4.466-47.85,11.217-65.712,33.926-21.236,27-23.144,71.763-4.433,104.119,16.325,28.234,45.54,41.012,64.875,49.467,13.015,5.693,20.87,9.13,19.613,15.361C5157.4,2462.208,5156.161,2468.336,5111.47,2468.336Z" fill="#c45102"/>
        </g>
      </g>
    </g>
    <path id="Tracé_143" data-name="Tracé 143" d="M5366.57,1880.08v7.012a39.77,39.77,0,0,1-39.757,39.757H4847.7a39.617,39.617,0,0,1-39.406-34.919,27.652,27.652,0,0,1-.35-4.838v-7.012a39.709,39.709,0,0,1,39.756-39.686h479.112a39.677,39.677,0,0,1,39.757,39.686Z" fill="#8c3e0a"/>
    <path id="Tracé_144" data-name="Tracé 144" d="M5351.144,1848.668c-25.874,31.834-67.033,61.984-124.248,44.034-106.929-33.517-162.252-7.923-186.793,4.347s-141.987-8.765-170.034-13.463c-17.95-2.945-44.735,3.366-61.774,8.344a27.652,27.652,0,0,1-.35-4.838v-7.012a39.709,39.709,0,0,1,39.756-39.686h479.112A39.811,39.811,0,0,1,5351.144,1848.668Z" opacity="0.1" style="mix-blend-mode: overlay;isolation: isolate"/>
    <path id="Tracé_145" data-name="Tracé 145" d="M5124.384,1926.849l-74.254,45.085v-45.085Z" opacity="0.42" style="mix-blend-mode: overlay;isolation: isolate"/>
  </g>
</svg>
