<svg xmlns="http://www.w3.org/2000/svg" xmlns:xlink="http://www.w3.org/1999/xlink" width="1063.987" height="2265.415" viewBox="0 0 1063.987 2265.415">
  <defs>
    <clipPath id="clip-path">
      <path id="Tracé_185" data-name="Tracé 185" d="M4237.027,1473.349c-27.077,44.806-3.329,124.818-.128,200.03s-49.608,139.221-49.608,139.221-110.417-64.01-156.824-78.412-142.421,9.6-198.43,9.6-243.237-14.4-268.841-163.225c-25.22-146.647,75.851-243.557,78.86-246.374l.064-.064h228.323c3.328,50.568,106.384,45.383,144.022,48.584,29.124,2.5,190.236,1.728,261.8,1.28,20.995-.128,34.245-.256,34.245-.256S4264.1,1428.542,4237.027,1473.349Z" fill="#bed9d2"/>
    </clipPath>
  </defs>
  <g id="Groupe_94" data-name="Groupe 94" transform="translate(-3460.941 -398.495)">
    <path id="Tracé_146" data-name="Tracé 146" d="M4018.854,1195.252s41.06,12.887,71.326,3.789,33.55,1.592,33.55,1.592,1.116,10.063-32.572,18.087c8.749.825,17.5,2.109,26.189,3.717,8.876,1.643,18.09,2.614,26.5,6.69,8.739,4.238,19.362,15.91,20.889,26.679,1.059,7.467-3.437,11.1-8.813,13.965-18.817,10.019-48.138,17.741-68.2,5.1-22.751-14.335-71.812-34.465-73.53-34.174s4.343-47.37,4.343-47.37Z" fill="#ff9d6c"/>
    <g id="Groupe_77" data-name="Groupe 77">
      <rect id="Rectangle_14" data-name="Rectangle 14" width="667.973" height="94.136" rx="19.883" transform="translate(3628.897 2569.773)" fill="#f87c11"/>
      <rect id="Rectangle_15" data-name="Rectangle 15" width="667.973" height="94.136" rx="19.883" transform="translate(3547.285 2475.886)" fill="#f94a38"/>
      <rect id="Rectangle_16" data-name="Rectangle 16" width="608.231" height="91.202" rx="19.139" transform="translate(3468.34 2150.58)" fill="#f87c11"/>
      <rect id="Rectangle_17" data-name="Rectangle 17" width="608.221" height="91.214" rx="19.139" transform="translate(3497.148 2059.375)" fill="#f94a38"/>
      <rect id="Rectangle_18" data-name="Rectangle 18" width="608.221" height="102.032" rx="19.139" transform="translate(3514.303 1840.653)" fill="#bed9d2"/>
      <rect id="Rectangle_19" data-name="Rectangle 19" width="708.374" height="107.687" rx="19.139" transform="translate(3460.941 1732.991)" fill="#ffbd50"/>
      <g id="Groupe_56" data-name="Groupe 56">
        <path id="Rectangle_20" data-name="Rectangle 20" d="M50.81,0H531.456a6.056,6.056,0,0,1,6.056,6.056V95.564a6.056,6.056,0,0,1-6.056,6.056H50.81A50.81,50.81,0,0,1,0,50.81v0A50.81,50.81,0,0,1,50.81,0Z" transform="translate(3591.24 2364.507)" fill="#eaded6"/>
        <path id="Tracé_147" data-name="Tracé 147" d="M4153.857,2456.832H3653.331c-27.656,0-51.948-16.208-53.682-37.7-1.887-23.384,22-42.879,51.633-42.879h502.575c6.756,0,12.233-4.266,12.233-9.527h0c0-5.262-5.477-9.527-12.233-9.527H3653.732c-39.783,0-74.707,22.939-78.328,53.791-4.134,35.21,31.5,64.9,75.878,64.9h502.575c6.756,0,12.233-4.265,12.233-9.527h0C4166.09,2461.1,4160.613,2456.832,4153.857,2456.832Z" fill="#bed9d2"/>
        <path id="Tracé_148" data-name="Tracé 148" d="M3644.4,2396.065c37.606-1.249,75.213-1.834,112.819-2.319s75.214-.453,112.82-.706c37.607.237,75.213.213,112.82.7l56.41.845c18.8.5,37.606.8,56.409,1.485-18.8.687-37.606.981-56.409,1.484l-56.41.845c-37.607.483-75.213.459-112.82.7-37.606-.254-75.213-.208-112.82-.706S3682.007,2397.314,3644.4,2396.065Z" fill="#9e9d9d"/>
        <path id="Tracé_149" data-name="Tracé 149" d="M3644.4,2415.118c37.606-1.249,75.213-1.834,112.819-2.318,37.607-.5,75.214-.453,112.82-.706,37.607.237,75.213.213,112.82.7l56.41.845c18.8.5,37.606.8,56.409,1.484-18.8.687-37.606.982-56.409,1.485l-56.41.845c-37.607.482-75.213.458-112.82.7-37.606-.253-75.213-.207-112.82-.706S3682.007,2416.368,3644.4,2415.118Z" fill="#9e9d9d"/>
        <path id="Tracé_150" data-name="Tracé 150" d="M3644.4,2434.172c37.606-1.249,75.213-1.834,112.819-2.319s75.214-.452,112.82-.706c37.607.238,75.213.213,112.82.7l56.41.845c18.8.5,37.606.8,56.409,1.484-18.8.687-37.606.982-56.409,1.485l-56.41.845c-37.607.482-75.213.458-112.82.7-37.606-.253-75.213-.208-112.82-.706S3682.007,2435.421,3644.4,2434.172Z" fill="#9e9d9d"/>
      </g>
      <g id="Groupe_57" data-name="Groupe 57">
        <path id="Rectangle_21" data-name="Rectangle 21" d="M50.81,0H531.456a6.056,6.056,0,0,1,6.056,6.056V95.564a6.056,6.056,0,0,1-6.056,6.056H50.81A50.81,50.81,0,0,1,0,50.81v0A50.81,50.81,0,0,1,50.81,0Z" transform="translate(3511.328 2245.817)" fill="#eaded6"/>
        <path id="Tracé_151" data-name="Tracé 151" d="M4073.945,2338.142H3573.419c-27.656,0-51.948-16.208-53.683-37.7-1.886-23.384,22-42.879,51.634-42.879h502.575c6.756,0,12.233-4.266,12.233-9.527h0c0-5.262-5.477-9.527-12.233-9.527H3573.82c-39.783,0-74.707,22.939-78.329,53.791-4.133,35.21,31.505,64.9,75.879,64.9h502.575c6.756,0,12.233-4.265,12.233-9.527h0C4086.178,2342.408,4080.7,2338.142,4073.945,2338.142Z" fill="#f94a38"/>
        <path id="Tracé_152" data-name="Tracé 152" d="M3564.489,2277.375c37.606-1.249,75.213-1.834,112.82-2.319s75.213-.453,112.819-.706c37.607.237,75.213.213,112.82.695l56.41.845c18.8.5,37.606.8,56.41,1.485-18.8.686-37.607.981-56.41,1.484l-56.41.845c-37.607.483-75.213.458-112.82.695-37.606-.253-75.213-.207-112.819-.706S3602.095,2278.624,3564.489,2277.375Z" fill="#9e9d9d"/>
        <path id="Tracé_153" data-name="Tracé 153" d="M3564.489,2296.428c37.606-1.249,75.213-1.834,112.82-2.318,37.606-.5,75.213-.453,112.819-.706,37.607.237,75.213.212,112.82.7l56.41.845c18.8.5,37.606.8,56.41,1.484-18.8.687-37.607.982-56.41,1.485l-56.41.845c-37.607.482-75.213.458-112.82.695-37.606-.253-75.213-.207-112.819-.706S3602.095,2297.677,3564.489,2296.428Z" fill="#9e9d9d"/>
        <path id="Tracé_154" data-name="Tracé 154" d="M3564.489,2315.482c37.606-1.249,75.213-1.834,112.82-2.319s75.213-.453,112.819-.706c37.607.237,75.213.213,112.82.7l56.41.844c18.8.5,37.606.8,56.41,1.485-18.8.687-37.607.982-56.41,1.485l-56.41.845c-37.607.482-75.213.458-112.82.7-37.606-.253-75.213-.207-112.819-.706S3602.095,2316.731,3564.489,2315.482Z" fill="#9e9d9d"/>
      </g>
      <g id="Groupe_58" data-name="Groupe 58">
        <path id="Rectangle_22" data-name="Rectangle 22" d="M50.81,0H531.456a6.056,6.056,0,0,1,6.056,6.056V95.564a6.056,6.056,0,0,1-6.056,6.056H50.81A50.81,50.81,0,0,1,0,50.81v0A50.81,50.81,0,0,1,50.81,0Z" transform="translate(3521.916 1947.999)" fill="#eaded6"/>
        <path id="Tracé_155" data-name="Tracé 155" d="M4084.533,2040.325H3584.007c-27.656,0-51.948-16.209-53.683-37.7-1.887-23.384,22.005-42.879,51.634-42.879h502.575c6.756,0,12.233-4.265,12.233-9.527h0c0-5.262-5.477-9.527-12.233-9.527H3584.408c-39.783,0-74.707,22.939-78.329,53.791-4.133,35.21,31.5,64.9,75.879,64.9h502.575c6.756,0,12.233-4.265,12.233-9.527h0C4096.766,2044.59,4091.289,2040.325,4084.533,2040.325Z" fill="#423fa6"/>
        <path id="Tracé_156" data-name="Tracé 156" d="M3575.077,1979.557c37.607-1.249,75.213-1.834,112.82-2.319s75.213-.453,112.819-.706c37.607.237,75.213.213,112.82.7l56.41.844c18.8.5,37.606.8,56.409,1.485-18.8.687-37.606.981-56.409,1.485l-56.41.844c-37.607.483-75.213.459-112.82.7-37.606-.253-75.213-.208-112.819-.706S3612.684,1980.806,3575.077,1979.557Z" fill="#9e9d9d"/>
        <path id="Tracé_157" data-name="Tracé 157" d="M3575.077,1998.611c37.607-1.249,75.213-1.835,112.82-2.319,37.606-.5,75.213-.453,112.819-.706,37.607.237,75.213.213,112.82.695l56.41.845c18.8.5,37.606.8,56.409,1.485-18.8.686-37.606.981-56.409,1.484l-56.41.845c-37.607.483-75.213.458-112.82.7-37.606-.254-75.213-.208-112.819-.707C3650.29,2000.445,3612.684,1999.86,3575.077,1998.611Z" fill="#9e9d9d"/>
        <path id="Tracé_158" data-name="Tracé 158" d="M3575.077,2017.664c37.607-1.249,75.213-1.834,112.82-2.319s75.213-.452,112.819-.706c37.607.238,75.213.213,112.82.7l56.41.845c18.8.5,37.606.8,56.409,1.484-18.8.687-37.606.982-56.409,1.485l-56.41.845c-37.607.482-75.213.458-112.82.695-37.606-.253-75.213-.207-112.819-.706S3612.684,2018.913,3575.077,2017.664Z" fill="#9e9d9d"/>
      </g>
      <g id="Groupe_59" data-name="Groupe 59">
        <rect id="Rectangle_23" data-name="Rectangle 23" width="379.257" height="6.057" transform="translate(3640.339 2102.108)" fill="#fff"/>
      </g>
      <g id="Groupe_60" data-name="Groupe 60">
        <rect id="Rectangle_24" data-name="Rectangle 24" width="379.257" height="6.057" transform="translate(3705.948 1887.655)" fill="#fff"/>
      </g>
      <g id="Groupe_61" data-name="Groupe 61">
        <rect id="Rectangle_25" data-name="Rectangle 25" width="379.257" height="6.057" transform="translate(3716.423 1783.808)" fill="#fff"/>
      </g>
      <path id="Tracé_159" data-name="Tracé 159" d="M4105.369,2078.513v52.936a19.15,19.15,0,0,1-19.139,19.139H4045.2v-91.214h41.03A19.151,19.151,0,0,1,4105.369,2078.513Z" fill="#ce3232"/>
      <rect id="Rectangle_26" data-name="Rectangle 26" width="127.83" height="60.809" rx="30.405" transform="translate(3547.285 1862.929)" fill="#fff"/>
      <g id="Groupe_62" data-name="Groupe 62">
        <rect id="Rectangle_27" data-name="Rectangle 27" width="379.257" height="6.057" transform="translate(3852.587 2611.163)" fill="#fff"/>
      </g>
      <path id="Tracé_160" data-name="Tracé 160" d="M3791.349,2647.246h-67.021a30.494,30.494,0,0,1-30.4-30.405h0a30.493,30.493,0,0,1,30.4-30.4h67.021a30.493,30.493,0,0,1,30.4,30.4h0A30.494,30.494,0,0,1,3791.349,2647.246Z" fill="#fff"/>
      <g id="Groupe_63" data-name="Groupe 63">
        <rect id="Rectangle_28" data-name="Rectangle 28" width="379.257" height="6.057" transform="translate(3669.626 2190.503)" fill="#fff"/>
      </g>
      <path id="Tracé_161" data-name="Tracé 161" d="M3608.388,2226.586h-67.021a30.494,30.494,0,0,1-30.405-30.405h0a30.494,30.494,0,0,1,30.405-30.4h67.021a30.493,30.493,0,0,1,30.4,30.4h0A30.494,30.494,0,0,1,3608.388,2226.586Z" fill="#fff"/>
      <g id="Groupe_64" data-name="Groupe 64">
        <rect id="Rectangle_29" data-name="Rectangle 29" width="6.057" height="72.011" transform="translate(3536.466 2071.361)" fill="#ce3232"/>
      </g>
      <g id="Groupe_65" data-name="Groupe 65">
        <rect id="Rectangle_30" data-name="Rectangle 30" width="6.057" height="72.011" transform="translate(3568.979 2071.361)" fill="#ce3232"/>
      </g>
      <g id="Groupe_66" data-name="Groupe 66">
        <rect id="Rectangle_31" data-name="Rectangle 31" width="6.057" height="72.011" transform="translate(3601.489 2071.361)" fill="#ce3232"/>
      </g>
      <g id="Groupe_67" data-name="Groupe 67">
        <rect id="Rectangle_32" data-name="Rectangle 32" width="379.257" height="6.057" transform="translate(3705.362 2517.696)" fill="#fff"/>
      </g>
      <g id="Groupe_68" data-name="Groupe 68">
        <rect id="Rectangle_33" data-name="Rectangle 33" width="6.057" height="72.011" transform="translate(3601.489 2486.949)" fill="#ce3232"/>
      </g>
      <g id="Groupe_69" data-name="Groupe 69">
        <rect id="Rectangle_34" data-name="Rectangle 34" width="6.057" height="72.011" transform="translate(3634.002 2486.949)" fill="#ce3232"/>
      </g>
      <g id="Groupe_70" data-name="Groupe 70">
        <rect id="Rectangle_35" data-name="Rectangle 35" width="6.057" height="72.011" transform="translate(3666.515 2486.949)" fill="#ce3232"/>
      </g>
      <g id="Groupe_71" data-name="Groupe 71">
        <path id="Tracé_162" data-name="Tracé 162" d="M3499.621,1741.844v0Z" fill="#fff"/>
        <rect id="Rectangle_36" data-name="Rectangle 36" width="6.057" height="86.949" transform="translate(3496.592 1741.843)" fill="#fff"/>
      </g>
      <g id="Groupe_72" data-name="Groupe 72">
        <path id="Tracé_163" data-name="Tracé 163" d="M3521.916,1741.844v0Z" fill="#fff"/>
        <rect id="Rectangle_37" data-name="Rectangle 37" width="6.057" height="86.949" transform="translate(3518.888 1741.843)" fill="#fff"/>
      </g>
      <g id="Groupe_73" data-name="Groupe 73">
        <path id="Tracé_164" data-name="Tracé 164" d="M3549.9,1741.844v0Z" fill="#fff"/>
        <rect id="Rectangle_38" data-name="Rectangle 38" width="6.057" height="86.949" transform="translate(3546.867 1741.843)" fill="#fff"/>
      </g>
      <g id="Groupe_74" data-name="Groupe 74">
        <path id="Tracé_165" data-name="Tracé 165" d="M3572.19,1741.844v0Z" fill="#fff"/>
        <rect id="Rectangle_39" data-name="Rectangle 39" width="6.057" height="86.949" transform="translate(3569.162 1741.843)" fill="#fff"/>
      </g>
      <g id="Groupe_75" data-name="Groupe 75">
        <path id="Tracé_166" data-name="Tracé 166" d="M3597.1,1741.844v0Z" fill="#fff"/>
        <rect id="Rectangle_40" data-name="Rectangle 40" width="6.057" height="86.949" transform="translate(3594.075 1741.843)" fill="#fff"/>
      </g>
      <g id="Groupe_76" data-name="Groupe 76">
        <path id="Tracé_167" data-name="Tracé 167" d="M3619.4,1741.844v0Z" fill="#fff"/>
        <rect id="Rectangle_41" data-name="Rectangle 41" width="6.057" height="86.949" transform="translate(3616.37 1741.843)" fill="#fff"/>
      </g>
    </g>
    <g id="Groupe_80" data-name="Groupe 80">
      <path id="Tracé_168" data-name="Tracé 168" d="M4249.579,1433.091s169.626-8,201.631,20.8-1.6,304.047-40.006,408.063-174.427,374.457-169.626,460.87c.745,13.414,1.617,20.949,4.367,31.541a219.751,219.751,0,0,0,7.892,24.69c13.444,32.009-78.977,17.251-108.273-21.826-9.791-13.06,2.389-51.588,8-61.61,22.4-40.005,78.412-310.447,80.012-411.262s49.607-229,49.607-229-123.218,96.183-179.227,97.783l35.206-300.846Z" fill="#f28251"/>
      <path id="Tracé_169" data-name="Tracé 169" d="M4335.609,2504.87c-1.409,12.8-9.026,20.419-20.8,24.324-22.019,7.233-192.413-122.322-202.847-147.926-4.1-10.05-.639-24.388,5.761-38.214,9.858-21.379,26.692-41.543,33.477-43.143v.7c.129,4.865,1.473,33.478,16.771,51.016,6.273,7.169,18.691,9.345,31.877,9.282,22.083-.129,46.087-6.53,46.087-6.53s.832,1.024,2.368,2.881c11.2,13.506,58.441,71.243,73.227,96.783.961,1.792,1.857,3.392,2.5,4.8,2.56,5.377,4.672,10.434,6.4,15.171C4334.968,2486.627,4336.569,2496.8,4335.609,2504.87Z" fill="#f94a38"/>
      <path id="Tracé_170" data-name="Tracé 170" d="M4335.609,2504.87c-1.409,12.8-9.026,20.419-20.8,24.324-22.019,7.233-192.413-122.322-202.847-147.926-4.1-10.05-.639-24.388,5.761-38.214,8.9,14.978,33.029,50.7,79.565,89.1,61.385,50.7,100.3,76.3,112.592,77.388C4318.838,2510.311,4329.208,2509.607,4335.609,2504.87Z" fill="#e0362d"/>
      <path id="Tracé_171" data-name="Tracé 171" d="M4330.424,2474.018c-6.209,5.376-14.4,5.248-50.5-18.371-33.989-22.276-65.61-70.475-80.076-94.734,22.083-.129,46.087-6.53,46.087-6.53s.832,1.024,2.368,2.881c11.2,13.506,58.441,71.243,73.227,96.783.961,1.792,1.857,3.392,2.5,4.8C4326.583,2464.224,4328.695,2469.281,4330.424,2474.018Z" fill="#c91612"/>
      <g id="Groupe_78" data-name="Groupe 78">
        <path id="Tracé_172" data-name="Tracé 172" d="M4333.934,2426.581c-23.431,0-55.05-9.088-59.954-10.54l-5.74-1.7,4.77-3.617c1.639-1.239,40.468-30.331,66.528-23.762,8.169,2.058,14.234,7.319,18.031,15.635,3.33,7.3,3.147,13.157-.55,17.413C4352.811,2424.854,4344.152,2426.581,4333.934,2426.581Zm-52.14-14.627c25.477,6.879,62.787,13.14,70.653,4.084.745-.86,3.014-3.472-.39-10.927-3.034-6.648-7.612-10.664-13.994-12.276C4319.914,2388.266,4292.952,2404.466,4281.794,2411.954Z" fill="#c91612"/>
      </g>
      <g id="Groupe_79" data-name="Groupe 79">
        <path id="Tracé_173" data-name="Tracé 173" d="M4267.705,2411.685l.065-5.986c.024-2.055.789-50.543,21.976-67.14,6.63-5.193,14.506-6.758,23.4-4.673,7.814,1.84,12.329,5.575,13.427,11.1,4.119,20.722-48.045,58.916-54.007,63.2Zm38.058-72.644a19.342,19.342,0,0,0-12.279,4.285c-14.745,11.543-18.445,42.775-19.362,56.187,21.042-15.926,48.85-41.583,46.513-53.345-.222-1.115-.9-4.51-8.875-6.385A26.112,26.112,0,0,0,4305.763,2339.041Z" fill="#c91612"/>
      </g>
    </g>
    <g id="Groupe_83" data-name="Groupe 83">
      <path id="Tracé_174" data-name="Tracé 174" d="M4310.51,1383.735s169.626-8,201.63,20.8-1.6,304.046-40.006,408.062-174.426,374.457-169.625,460.87c.745,13.415,1.616,20.95,4.366,31.541a219.811,219.811,0,0,0,7.893,24.691c13.443,32.008-78.978,17.251-108.274-21.826-9.791-13.06,2.389-51.589,8-61.61,22.4-40.006,78.412-310.447,80.012-411.263s49.608-229,49.608-229-123.219,96.183-179.227,97.784l35.2-300.846Z" fill="#ff9d6c"/>
      <path id="Tracé_175" data-name="Tracé 175" d="M4396.539,2455.514c-1.409,12.8-9.025,20.419-20.8,24.324-22.02,7.233-192.414-122.323-202.847-147.927-4.1-10.049-.64-24.388,5.761-38.214,9.857-21.379,26.692-41.542,33.477-43.142v.7c.128,4.864,1.472,33.477,16.77,51.016,6.273,7.169,18.691,9.345,31.877,9.281,22.084-.128,46.087-6.529,46.087-6.529s.832,1.024,2.369,2.88c11.2,13.507,58.44,71.243,73.227,96.783.96,1.792,1.856,3.393,2.5,4.8,2.561,5.377,4.673,10.434,6.4,15.17C4395.9,2437.271,4397.5,2447.449,4396.539,2455.514Z" fill="#f94a38"/>
      <path id="Tracé_176" data-name="Tracé 176" d="M4396.539,2455.514c-1.409,12.8-9.025,20.419-20.8,24.324-22.02,7.233-192.414-122.323-202.847-147.927-4.1-10.049-.64-24.388,5.761-38.214,8.9,14.979,33.029,50.7,79.564,89.1,61.385,50.7,100.3,76.3,112.593,77.388C4379.768,2460.955,4390.138,2460.251,4396.539,2455.514Z" fill="#e0362d"/>
      <path id="Tracé_177" data-name="Tracé 177" d="M4391.354,2424.661c-6.209,5.377-14.4,5.249-50.5-18.37-33.989-22.276-65.61-70.475-80.076-94.735,22.084-.128,46.087-6.529,46.087-6.529s.832,1.024,2.369,2.88c11.2,13.507,58.44,71.243,73.227,96.783.96,1.792,1.856,3.393,2.5,4.8C4387.514,2414.868,4389.626,2419.925,4391.354,2424.661Z" fill="#c91612"/>
      <g id="Groupe_81" data-name="Groupe 81">
        <path id="Tracé_178" data-name="Tracé 178" d="M4394.867,2377.226c-23.431,0-55.053-9.091-59.957-10.543l-5.74-1.7,4.77-3.617c1.639-1.242,40.448-30.345,66.528-23.759,8.169,2.058,14.234,7.319,18.031,15.635,3.33,7.3,3.147,13.157-.55,17.413C4413.741,2375.5,4405.082,2377.226,4394.867,2377.226Zm-52.143-14.63c25.474,6.876,62.784,13.134,70.653,4.087.745-.86,3.014-3.472-.39-10.927-3.035-6.648-7.612-10.664-13.994-12.276C4380.846,2338.9,4353.881,2355.1,4342.724,2362.6Z" fill="#c91612"/>
      </g>
      <g id="Groupe_82" data-name="Groupe 82">
        <path id="Tracé_179" data-name="Tracé 179" d="M4328.635,2362.327l.065-5.986c.024-2.055.789-50.543,21.976-67.137,6.63-5.2,14.5-6.757,23.4-4.672,7.807,1.836,12.326,5.571,13.423,11.1,4.12,20.719-48.044,58.913-54.006,63.2Zm38.055-72.641a19.334,19.334,0,0,0-12.279,4.285c-14.76,11.561-18.448,42.781-19.362,56.187,21.042-15.926,48.852-41.583,46.516-53.345-.222-1.115-.9-4.51-8.875-6.385A26.137,26.137,0,0,0,4366.69,2289.686Z" fill="#c91612"/>
      </g>
    </g>
    <path id="Tracé_180" data-name="Tracé 180" d="M3642.12,1273.318v60.809h228.323l6.4-50.12Z" fill="#423fa6"/>
    <g id="Groupe_89" data-name="Groupe 89">
      <path id="Tracé_181" data-name="Tracé 181" d="M4237.027,1473.349c-27.077,44.806-3.329,124.818-.128,200.03s-49.608,139.221-49.608,139.221-110.417-64.01-156.824-78.412-142.421,9.6-198.43,9.6-243.237-14.4-268.841-163.225c-25.22-146.647,75.851-243.557,78.86-246.374l.064-.064h228.323c3.328,50.568,106.384,45.383,144.022,48.584,29.124,2.5,190.236,1.728,261.8,1.28,20.995-.128,34.245-.256,34.245-.256S4264.1,1428.542,4237.027,1473.349Z" fill="#bed9d2"/>
      <g id="Groupe_88" data-name="Groupe 88" clip-path="url(#clip-path)">
        <g id="Groupe_87" data-name="Groupe 87">
          <g id="Groupe_84" data-name="Groupe 84">
            <path id="Tracé_182" data-name="Tracé 182" d="M4124.907,1843.91l-3.4-5.01c.787-.535,78.644-54.235,75.566-117.365-.982-20.124-5.365-47.468-10.008-76.417-10.7-66.756-22.83-142.419-2.365-176.529,28.68-47.8,119.842-136.1,123.711-139.838l4.2,4.353c-.94.911-94.454,91.488-122.723,138.6-19.33,32.214-7.385,106.718,3.155,172.454,4.667,29.118,9.076,56.624,10.076,77.079C4206.364,1787.78,4128.237,1841.65,4124.907,1843.91Z" fill="#fff"/>
          </g>
          <g id="Groupe_85" data-name="Groupe 85">
            <path id="Tracé_183" data-name="Tracé 183" d="M4088.257,1837.507l-3.4-5.01c.787-.535,78.644-54.231,75.563-117.364-.982-20.125-5.365-47.474-10.008-76.427-10.7-66.753-22.827-142.41-2.366-176.517,28.681-47.8,119.846-136.1,123.714-139.84l4.206,4.353c-.941.911-94.458,91.491-122.727,138.6-19.326,32.211-7.381,106.713,3.156,172.442,4.667,29.124,9.076,56.63,10.076,77.089C4169.714,1781.38,4091.587,1835.248,4088.257,1837.507Z" fill="#fff"/>
          </g>
          <g id="Groupe_86" data-name="Groupe 86">
            <path id="Tracé_184" data-name="Tracé 184" d="M4047.333,1837.507l-3.4-5.01c.787-.535,78.645-54.231,75.563-117.364-.982-20.125-5.364-47.474-10.007-76.427-10.7-66.753-22.831-142.41-2.366-176.517,28.68-47.8,119.846-136.1,123.714-139.84l4.205,4.353c-.94.911-94.457,91.491-122.726,138.6-19.326,32.211-7.385,106.713,3.152,172.442,4.67,29.124,9.079,56.63,10.079,77.089C4128.79,1781.38,4050.663,1835.248,4047.333,1837.507Z" fill="#fff"/>
          </g>
        </g>
      </g>
    </g>
    <path id="Tracé_186" data-name="Tracé 186" d="M4237.027,1473.349c-27.077,44.806-3.329,124.818-.128,200.03s-49.608,139.221-49.608,139.221-110.417-64.01-156.824-78.412-142.421,9.6-198.43,9.6-243.237-14.4-268.841-163.225c-25.22-146.647,75.851-243.557,78.86-246.374-1.728,4.545-82.957,213.6-11.65,291.181,72.011,78.411,265.9,88.013,324.983,65.608,49.106-18.621,103.631-32.826,156.385-26.648,69.3,8.118,64.5-92.719,73.25-140.921,10.123-55.779,44.5-107.48,91.241-139.42,20.995-.128,34.245-.256,34.245-.256S4264.1,1428.542,4237.027,1473.349Z" opacity="0.65" style="mix-blend-mode: overlay;isolation: isolate"/>
    <g id="Groupe_90" data-name="Groupe 90" opacity="0.65" style="mix-blend-mode: overlay;isolation: isolate">
      <path id="Tracé_187" data-name="Tracé 187" d="M3884.74,1386.4c-15.464,3.911-30.569,8.051-45.39,12.78-14.771,4.821-29.272,10.174-42.892,17.047a151.341,151.341,0,0,0-19.7,11.337,114.131,114.131,0,0,0-17.6,14.073,95.856,95.856,0,0,0-14.282,17.528,108.888,108.888,0,0,0-9.924,21.116,71.035,71.035,0,0,1,4.6-23.769,80.07,80.07,0,0,1,12.617-21.239c10.442-13.018,24.42-22.491,38.894-29.885a187.6,187.6,0,0,1,45.914-15.322C3852.72,1386.937,3868.764,1385.324,3884.74,1386.4Z"/>
    </g>
    <g id="Groupe_91" data-name="Groupe 91" opacity="0.65" style="mix-blend-mode: overlay;isolation: isolate">
      <path id="Tracé_188" data-name="Tracé 188" d="M3900.63,1391.767c-12.6,9.776-24.787,19.618-36.474,29.885-11.6,10.332-22.75,21.044-32.479,32.8a151.4,151.4,0,0,0-13.511,18.276,114.232,114.232,0,0,0-10.489,19.941,95.847,95.847,0,0,0-6.069,21.78,108.93,108.93,0,0,0-.639,23.324,71.006,71.006,0,0,1-5.3-23.623,80.047,80.047,0,0,1,3.056-24.514c4.356-16.11,13.371-30.388,23.673-42.958a187.554,187.554,0,0,1,35.939-32.424C3871.5,1405.078,3885.559,1397.176,3900.63,1391.767Z"/>
    </g>
    <g id="Groupe_92" data-name="Groupe 92" opacity="0.65" style="mix-blend-mode: overlay;isolation: isolate">
      <path id="Tracé_189" data-name="Tracé 189" d="M3924.076,1393.055c-7.284,14.191-14.159,28.263-20.4,42.51-6.144,14.272-11.71,28.693-15.553,43.457a151.48,151.48,0,0,0-4.511,22.277,114.182,114.182,0,0,0-1.066,22.506,95.816,95.816,0,0,0,3.716,22.3,108.9,108.9,0,0,0,9.289,21.4,71.025,71.025,0,0,1-14.8-19.161,80.027,80.027,0,0,1-7.6-23.505c-2.869-16.44-.742-33.191,3.274-48.94a187.608,187.608,0,0,1,18.845-44.585C3903.317,1417.439,3912.71,1404.332,3924.076,1393.055Z"/>
    </g>
    <g id="Groupe_93" data-name="Groupe 93">
      <path id="Tracé_190" data-name="Tracé 190" d="M4106.883,1242.071s-22.964-44.5-22.882-91.976c.076-44.039,4.887-73.023,13.068-81.612,3.429-3.6,20.142-2.885,20.142-2.885l6,176.473Z" fill="#ffbd50"/>
      <path id="Tracé_191" data-name="Tracé 191" d="M4111.715,1228.894l289.112-9.547s-23.181-98.323-1.578-163.133c0,0-218.209,9.424-291,9.424C4102.326,1065.638,4075.937,1129.425,4111.715,1228.894Z" fill="#f7f7f7"/>
      <path id="Tracé_192" data-name="Tracé 192" d="M4455.257,1339.5s-5.349,22.65,1.586,37.052l-291.23,24.337s-22.093-20.278-9.446-40.3C4156.167,1360.591,4430.72,1336.3,4455.257,1339.5Z" fill="#ccc"/>
      <path id="Tracé_193" data-name="Tracé 193" d="M4106.883,1242.071a319.9,319.9,0,0,0-3.146,41.378c0,43.321,22.937,72.544,61.876,117.442l-9.446-40.3S4156.279,1242.071,4106.883,1242.071Z" fill="#ffbd50"/>
      <path id="Tracé_194" data-name="Tracé 194" d="M4406.183,1246.688s20.27,70.411,49.074,92.814l-299.09,21.089s-50.669-48.826-43.815-105.368Z" fill="#f7f7f7"/>
      <path id="Tracé_195" data-name="Tracé 195" d="M4406.162,1246.707l-293.805,8.513c-11.138-14.4-.64-26.308-.64-26.308l289.132-9.537C4398.417,1234.161,4406.162,1246.707,4406.162,1246.707Z" fill="#ffbd50"/>
      <path id="Tracé_196" data-name="Tracé 196" d="M4112.357,1255.22c-11.138-14.4-.64-26.308-.64-26.308Z" fill="#ff931e"/>
      <path id="Tracé_197" data-name="Tracé 197" d="M4123.207,1098.891l246.512-9.775s-8.8,91.388,4,109.791l-243.74,10.432S4103.98,1132.566,4123.207,1098.891Z" fill="#e5e5e5"/>
      <path id="Tracé_198" data-name="Tracé 198" d="M4379.32,1255.22s9.4,58.5,26.842,72.506l-232.206,14.4s-38.406-40.539-24-77.878Z" fill="#e5e5e5"/>
    </g>
    <path id="Tracé_199" data-name="Tracé 199" d="M4057.671,458.794s67.744,43.8,46.407,109.939-56.542,125.03-41.606,170.9c11.2,34.4,76.7,71.321,43.74,119.751-19.6,28.8-55.968,14.519-65.077,29.338-12.627,20.544,17.5,51.741-12.75,68.781-65.839,37.084-143.007-68.247-137.672-179.2s58.142-322.182,70.944-333.917S4057.671,458.794,4057.671,458.794Z" fill="#893d0a"/>
    <path id="Tracé_200" data-name="Tracé 200" d="M3951.479,811.359c-74.7,20.292-165.529-85.644-165.529-85.644,8.769-10.114,14.082-15.683,14.082-15.683s14.082-13.826,31.877-32.773c21.955-23.492,49.607-54.856,63.177-77.9,21.124,19.587,31.878,50.952,35.654,70.155,1.6,8.065-17.731,64.458,15.17,131.348C3947.639,804.319,3949.5,807.839,3951.479,811.359Z" fill="#ff9d6c"/>
    <path id="Tracé_201" data-name="Tracé 201" d="M4061.431,564.022a111.643,111.643,0,0,1,4.548,55.264,99.77,99.77,0,0,1-8.306,26.551c-3.892,8.4-8.289,16.236-12.208,24.4-7.84,16.1-14.964,33.134-14.121,50.95.872,17.778,9.509,34.273,20.227,48.593,10.723,14.645,22.042,28.9,31.268,44.753a54.579,54.579,0,0,1,5.508,12.715c1.344,4.408,1.023,10.048-2.421,13.727-3.228,3.754-7.806,5.413-12.036,7.012-4.292,1.552-8.639,2.876-12.962,4.263-8.595,2.809-17.363,5.416-25.109,10-7.851,4.223-14.054,12.122-13.984,21.291-.141,4.459.866,8.943,1.287,13.483a58.824,58.824,0,0,1-.191,13.635,37.872,37.872,0,0,1-4.086,12.957,39.3,39.3,0,0,1-8.648,10.45,39.185,39.185,0,0,0,8.481-10.539,37.632,37.632,0,0,0,3.878-12.918,58.363,58.363,0,0,0,0-13.53c-.472-4.469-1.552-8.943-1.479-13.559-.236-9.426,6.191-17.854,14.154-22.242,7.863-4.8,16.659-7.532,25.229-10.469,4.3-1.446,8.623-2.829,12.847-4.423,4.141-1.613,8.441-3.32,11.175-6.637,2.881-3.192,3.133-7.82,1.847-11.987a52.584,52.584,0,0,0-5.467-12.11c-9.264-15.432-20.792-29.574-31.709-44.048-11.067-14.376-20.394-31.355-21.59-50.218-1.142-18.923,6.132-36.758,13.807-53.117,3.825-8.26,8.2-16.343,11.825-24.474a94.636,94.636,0,0,0,7.553-25.366,106.358,106.358,0,0,0-4.917-52.1Z" fill="#aa4d0e"/>
    <path id="Tracé_202" data-name="Tracé 202" d="M4058.818,585.082c-3.29,14.987-7.1,29.611-11.549,44.206-4.55,14.539-9.466,29.014-16.39,42.931a82.848,82.848,0,0,1-13.159,19.76c-5.365,5.731-11.182,10.683-16.674,15.7-5.457,5.01-10.694,10.141-14.308,16.053a27,27,0,0,0-3.909,19.466,55.243,55.243,0,0,0,8.389,19.541c4,6.1,8.713,11.862,13.43,17.877a215.052,215.052,0,0,1,13.031,18.71,90.83,90.83,0,0,1,9.877,20.72,39.1,39.1,0,0,1,1.885,11.523,22.233,22.233,0,0,1-3.217,11.356,23.89,23.89,0,0,1-8.5,7.986c-3.238,1.926-6.013,4.08-7.524,7.481-2.924,6.729-2.21,14.55-2.255,22.009.055,7.412-.317,15.548-5.019,21.664,4.481-6.275,4.556-14.26,4.262-21.65-.173-7.442-1.264-15.223,1.63-22.641,1.435-3.719,4.75-6.488,7.9-8.466a21.819,21.819,0,0,0,7.566-7.56c3.666-6.21,2.839-13.973.391-20.779a87.583,87.583,0,0,0-10.19-19.615,211.222,211.222,0,0,0-13.388-17.91c-9.41-11.277-20.6-23.1-24.223-39.159a33.547,33.547,0,0,1,3.975-23.975c4.048-7.116,9.581-12.788,15-18.131,5.457-5.318,10.957-10.35,15.708-15.79a74.245,74.245,0,0,0,11.145-18.114c6.071-13.281,10.434-27.592,14.387-41.917,3.857-14.358,7.156-29.03,9.839-43.564Z" fill="#aa4d0e"/>
    <path id="Tracé_203" data-name="Tracé 203" d="M3945.91,800.862s-83.916-63.626-114-123.6c21.955-23.492,49.607-54.856,63.177-77.9,21.124,19.587,31.878,50.952,35.654,70.155C3932.34,677.579,3913.009,733.972,3945.91,800.862Z" opacity="0.42" style="mix-blend-mode: overlay;isolation: isolate"/>
    <path id="Tracé_204" data-name="Tracé 204" d="M4058.632,565.178c.127,24.772-2.5,57.929-14.915,81.613-22.4,42.694-68.17,63.241-95.886,57.928-27.781-5.377-60.809-27.78-73.612-65.1-6.657-19.4-6.977-46.536-2.5-71.436,4.161-23.043,12.482-44.23,23.811-55.5,23.492-23.491,161.113-33.093,161.113,18.115A315.084,315.084,0,0,1,4058.632,565.178Z" fill="#ff9d6c"/>
    <path id="Tracé_205" data-name="Tracé 205" d="M4058.632,565.178s-28.165,21.636-47.368,18.435-39.622-15.234-54.024-18.435c-10.306-2.24-56.264-1.088-85.517,3.008,4.161-23.043,12.482-44.23,23.811-55.5,23.492-23.491,161.113-33.093,161.113,18.115A315.084,315.084,0,0,1,4058.632,565.178Z" opacity="0.42" style="mix-blend-mode: overlay;isolation: isolate"/>
    <path id="Tracé_206" data-name="Tracé 206" d="M3738.666,823.337s-92.591,203.643-54.5,263.711S4017.037,1252.6,4017.037,1252.6l19.474-60.536s-217.794-115.271-222.072-147.5S3855.578,929.4,3864.368,910.8s21.855-129.087-30.827-135.378S3747.026,803.99,3738.666,823.337Z" fill="#f7342b"/>
    <path id="Tracé_207" data-name="Tracé 207" d="M3988.157,1049.284c-29.509,51.208-111.313,234.724-111.313,234.724l-234.724-10.69s6.4-19.2-10.626-194.142C3617.284,933.81,3743,775.194,3785.95,725.715c0,0,90.83,105.936,165.529,85.644C3992,882.859,4017.665,998.076,3988.157,1049.284Z" fill="#f94a38"/>
    <path id="Tracé_208" data-name="Tracé 208" d="M3913.828,934.066s7.467,113.179-14.507,157.909,54.456,101.348,54.456,101.348-165.623-20.42-134.08-102.233S3913.828,934.066,3913.828,934.066Z" opacity="0.42" style="mix-blend-mode: overlay;isolation: isolate"/>
    <path id="Tracé_209" data-name="Tracé 209" d="M4091.992,1287.491s44.848,14.076,77.907,4.139,36.646,1.738,36.646,1.738,1.22,10.992-35.577,19.756c9.556.9,19.119,2.3,28.605,4.06,9.695,1.8,19.759,2.856,28.941,7.308,9.545,4.629,21.148,17.378,22.816,29.14,1.157,8.157-3.754,12.128-9.626,15.254-20.552,10.944-52.58,19.378-74.5,5.567-24.85-15.659-78.438-37.646-80.314-37.328s4.744-51.741,4.744-51.741Z" fill="#ff9d6c"/>
    <path id="Tracé_210" data-name="Tracé 210" d="M3928.052,1273.318s-75.872-1.067-161.688-44.807-96.485-113.084-66.614-192.029,67.477-86.013,67.477-86.013Z" opacity="0.42" style="mix-blend-mode: overlay;isolation: isolate"/>
    <path id="Tracé_211" data-name="Tracé 211" d="M3785.95,881.258S3773.7,908.2,3759.48,946.1c-26.638,70.993-60.185,180.427-33.059,223.2,41.606,65.61,363.586,180.828,363.586,180.828l21.271-66.122S3873.387,1158.1,3868.714,1122.9s44.935-125.785,54.537-146.105,23.872-141-33.671-147.869S3795.081,860.126,3785.95,881.258Z" fill="#f94a38"/>
    <path id="Tracé_212" data-name="Tracé 212" d="M3960.013,541.288s19.381,13.393,53.252,13.521c2.205.008,10.508-.789,11.335.8,1.377,2.648-4,8.534-10.935,12,56.008,13.335,65.792-25.534,66.01-34.006.673-26.219-9.2-62.008-22-74.811-83.7-83.711-181.849-76.269-253.443-2.331a278.8,278.8,0,0,0-53.406,77.856c-14.163,31.031-13.788,65.93-27.474,97.238-20.38,46.62-67.561,64.823-108.189,89.553-60.941,37.1-86.1,92.343-44.763,158.546,4.852,7.771-9.7,26.21-12.476,33.193-8.713,21.892-1.261,48.462,11.831,67.338,19.1,27.536,54.979,45.372,86.968,28.91,9.723-5,21.626-17.409,33.538-14.43,48.065,12.019,104.994-30.241,110.476-78.939,2.034-18.063-3.07-36.053-5.637-54.048-5.087-35.656,9.615-57.952,36.973-78.795,22.032-16.787,40.245-32.071,39.654-62.184-.608-31,40.86-68.811,30.355-112.726-4.46-18.644,17.98-29.911,23.973-35.427Z" fill="#a54a0c"/>
    <path id="Tracé_213" data-name="Tracé 213" d="M3859.1,431.608a298.986,298.986,0,0,0-57.535,32.232c-17.944,12.843-34.448,27.822-47.695,45.313-13.254,17.415-22.879,37.694-26.251,59.287-1.646,10.525-1.714,22.321-4.263,33.614a106.534,106.534,0,0,1-12.285,32.4,90.286,90.286,0,0,1-23.2,25.709,116.94,116.94,0,0,1-30.363,16.085,218.284,218.284,0,0,1-32.915,8.738c-11.054,2.241-22.346,3.58-32.938,6.551-10.33,3.386-19.369,10.494-27.084,18.414a110.3,110.3,0,0,0-19.205,27.25c-4.925,9.989-8.344,20.9-8.675,32.109a48.3,48.3,0,0,0,9.88,31.441,48.677,48.677,0,0,1-10.635-31.453c.081-11.358,3.3-22.505,8.069-32.752a112.134,112.134,0,0,1,18.918-28.15c7.734-8.264,16.732-15.8,27.815-19.739,11.03-3.351,22.156-4.888,33.093-7.371a214.251,214.251,0,0,0,32.077-9.278c20.684-7.8,39.273-21.5,49.944-40.6a100.141,100.141,0,0,0,10.838-30.687c2.19-10.763,1.941-21.658,3.457-33.4,3.065-23.058,12.871-44.911,26.417-63.554,13.545-18.742,30.426-34.729,48.736-48.473a309.235,309.235,0,0,1,59.281-34.928Z" fill="#a54a0c"/>
    <path id="Tracé_214" data-name="Tracé 214" d="M4091.449,498.256a42.238,42.238,0,0,1,6.541,7.31,66.695,66.695,0,0,1,4.692,7.64,92.673,92.673,0,0,1,6.631,16.163c3.339,11.056,4.641,22.4,5.117,33.617.628,22.5-2.8,44.6-8.087,66-5.25,21.415-12.155,42.071-15.593,63.553-1.709,10.683-2.585,21.593-.985,32.3a51.064,51.064,0,0,0,13.972,28.8,51.886,51.886,0,0,1-15.578-28.516c-2.185-10.883-1.839-22.089-.643-33.026,2.427-21.926,8.3-43.278,12.521-64.526,4.288-21.2,6.636-42.848,5.121-64.076-.9-10.558-2.594-21.053-6.023-30.832a81.57,81.57,0,0,0-6.4-13.875,55.147,55.147,0,0,0-4.142-6.155,34.139,34.139,0,0,0-4.5-4.763Z" fill="#893d0a"/>
    <path id="Tracé_215" data-name="Tracé 215" d="M3600,892.473a26.929,26.929,0,0,0,5.977-18.667c-.241-6.677-2.149-13.165-4.245-19.519-4.031-12.727-10.079-25.25-10.24-39.449a33.355,33.355,0,0,1,6.464-19.969,57.545,57.545,0,0,1,15.26-14.3c11.58-7.6,24.36-12.951,37.4-17.028,26.123-8.067,53.1-11.624,78.225-20.054,12.517-4.205,24.551-9.668,35.011-17.294a107.126,107.126,0,0,0,26.415-28.108c14.167-21.913,21.838-47.562,26.118-73.768,4.6-26.42,8.313-53.671,18.612-79.777,5.263-12.864,12.373-25.951,24.379-35.361A49.021,49.021,0,0,1,3880,499.748a59.737,59.737,0,0,1,22.268.083,89.733,89.733,0,0,1,10.55,2.61A37.8,37.8,0,0,1,3923.5,507.8c6.61,4.7,11.211,11.6,13.961,18.682,5.394,14.382,4.831,29.586.717,43.65l-3.475,11.878-7.23-10.288c-6.484-9.225-14.971-18.692-24.266-23.256-4.691-2.23-9.041-2.592-12.723-.606-3.794,1.957-7.149,6.332-9.683,11.276-5.066,10.034-7.8,22.092-10.091,33.944a272.665,272.665,0,0,0-4.132,36.2c-.708,12.225-.748,24.621-1.839,37.3-1.066,12.624-3.58,25.732-9.244,37.671-5.567,11.97-13.9,22.3-23.146,31.106a142.089,142.089,0,0,1-30.856,22.624c-22.313,12.274-46.353,19.773-69.951,27.221-11.808,3.734-23.6,7.393-34.944,11.906-11.206,4.586-22.462,9.863-30.469,18.352a30.174,30.174,0,0,0-7.791,15.059c-.965,5.868-1.544,12.109-2,18.215l-2.063,37.113c-1.027,12.336-2.3,25.069-7.671,36.563a37.541,37.541,0,0,1-11.72,14.555,41.087,41.087,0,0,1-17.277,6.7,40.676,40.676,0,0,0,16.786-7.35,36.294,36.294,0,0,0,10.723-14.575c4.705-11.308,5.664-23.8,6.247-36.058l.849-37.18c.27-6.261.623-12.393,1.453-18.786a35.3,35.3,0,0,1,8.422-17.838c8.789-10.025,20.588-15.78,32.05-20.742,11.592-4.9,23.418-8.846,35.151-12.84,23.427-7.937,46.863-15.883,67.828-28.034a132.58,132.58,0,0,0,28.464-21.822,99.885,99.885,0,0,0,20.565-28.52c9.985-21.249,8.3-46.258,9.609-71.195a283.693,283.693,0,0,1,4.033-37.645c2.353-12.412,4.9-24.894,10.883-37.134,3.095-5.95,7.185-12.278,14.424-16.277a22.792,22.792,0,0,1,11.95-2.674,29.763,29.763,0,0,1,11.09,2.886c6.6,3.107,11.842,7.477,16.579,12.085a108.633,108.633,0,0,1,12.72,15.127l-10.7,1.59c3.392-11.709,3.607-24.887-.463-35.888a29.035,29.035,0,0,0-9.746-13.4,25.93,25.93,0,0,0-7.3-3.716,78.192,78.192,0,0,0-9.058-2.31c-12.155-2.438-24.426-.48-33.818,6.886-9.5,7.251-16.1,18.6-21.011,30.494-9.773,24.174-13.738,50.845-18.519,77.414-4.6,26.8-12.652,54.108-28.563,77.271a116.3,116.3,0,0,1-29.358,29.9c-11.558,8.044-24.527,13.551-37.627,17.642-26.3,8.16-53.282,11.1-78.9,18.441-12.782,3.6-25.329,8.295-36.569,15.146-10.982,6.683-20.919,17.11-20.974,30.345-.373,13.082,5.081,25.879,8.731,38.816,1.821,6.508,3.451,13.215,3.378,20.07A27.413,27.413,0,0,1,3600,892.473Z" fill="#bf5811"/>
    <path id="Tracé_216" data-name="Tracé 216" d="M3942.124,575.094l-33.989,31.237c-13.634-4.288-14.658-10.625-17.6-29.572-.128-.9-.255-1.856-.32-2.817-1.152-18.242,14.274-37.957,33.285-34.821,12.546,2.112,16.643,15.746,17.987,25.6A62.744,62.744,0,0,1,3942.124,575.094Z" fill="#ff9d6c"/>
    <path id="Tracé_217" data-name="Tracé 217" d="M3941.484,564.725c-5.184-8.066-12.482-17.219-18.947-17.475-11.586-.384-21.379,4.353-26.436,12.418-2.112,3.456-4.161,8.834-5.889,14.274-1.152-18.242,14.274-37.957,33.285-34.821C3936.043,541.233,3940.14,554.867,3941.484,564.725Z" opacity="0.42" style="mix-blend-mode: overlay;isolation: isolate"/>
  </g>
</svg>
